<mxfile host="65bd71144e">
    <diagram name="get_mem_array" id="qTNmqbYphLB1NOyPBaCi">
        <mxGraphModel dx="535" dy="475" grid="1" gridSize="10" guides="1" tooltips="1" connect="1" arrows="1" fold="1" page="1" pageScale="1" pageWidth="827" pageHeight="1169" background="#ffffff" math="0" shadow="0">
            <root>
                <mxCell id="0"/>
                <mxCell id="1" parent="0"/>
                <mxCell id="7kKWyREf13AJe1QysBUn-3" value="" style="edgeStyle=none;html=1;strokeColor=#000000;strokeWidth=3;fontFamily=Times New Roman;fontSize=14;fontColor=#000000;" parent="1" source="7kKWyREf13AJe1QysBUn-1" target="7kKWyREf13AJe1QysBUn-2" edge="1">
                    <mxGeometry relative="1" as="geometry"/>
                </mxCell>
                <mxCell id="7kKWyREf13AJe1QysBUn-1" value="length" style="ellipse;whiteSpace=wrap;html=1;strokeColor=#000000;fontFamily=Times New Roman;fontSize=14;fontColor=#000000;fillColor=#FFFFFF;" parent="1" vertex="1">
                    <mxGeometry x="200" y="40" width="120" height="80" as="geometry"/>
                </mxCell>
                <mxCell id="8zzSYr8SPr4C44vhaHoF-2" value="" style="edgeStyle=none;html=1;strokeColor=#000000;strokeWidth=3;fontFamily=Times New Roman;fontSize=14;fontColor=#000000;" parent="1" source="7kKWyREf13AJe1QysBUn-2" target="8zzSYr8SPr4C44vhaHoF-1" edge="1">
                    <mxGeometry relative="1" as="geometry"/>
                </mxCell>
                <mxCell id="7kKWyREf13AJe1QysBUn-2" value="*array = malloc(length * sizeof(int))" style="shape=process;whiteSpace=wrap;html=1;backgroundOutline=1;strokeColor=#000000;fontFamily=Times New Roman;fontSize=14;fontColor=#000000;fillColor=#FFFFFF;" parent="1" vertex="1">
                    <mxGeometry x="130" y="140" width="260" height="60" as="geometry"/>
                </mxCell>
                <mxCell id="8zzSYr8SPr4C44vhaHoF-1" value="NULL == array" style="rhombus;whiteSpace=wrap;html=1;strokeColor=#000000;fontFamily=Times New Roman;fontSize=14;fontColor=#000000;fillColor=#FFFFFF;" parent="1" vertex="1">
                    <mxGeometry x="165" y="230" width="190" height="80" as="geometry"/>
                </mxCell>
                <mxCell id="8zzSYr8SPr4C44vhaHoF-3" value="" style="endArrow=none;html=1;strokeColor=#000000;strokeWidth=3;fontFamily=Times New Roman;fontSize=14;fontColor=#000000;exitX=1;exitY=0.5;exitDx=0;exitDy=0;" parent="1" source="8zzSYr8SPr4C44vhaHoF-1" edge="1">
                    <mxGeometry width="50" height="50" relative="1" as="geometry">
                        <mxPoint x="250" y="320" as="sourcePoint"/>
                        <mxPoint x="440" y="270" as="targetPoint"/>
                    </mxGeometry>
                </mxCell>
                <mxCell id="8zzSYr8SPr4C44vhaHoF-4" value="" style="endArrow=classic;html=1;strokeColor=#000000;strokeWidth=3;fontFamily=Times New Roman;fontSize=14;fontColor=#000000;" parent="1" edge="1">
                    <mxGeometry width="50" height="50" relative="1" as="geometry">
                        <mxPoint x="440" y="270" as="sourcePoint"/>
                        <mxPoint x="440" y="360" as="targetPoint"/>
                    </mxGeometry>
                </mxCell>
                <mxCell id="8zzSYr8SPr4C44vhaHoF-5" value="true" style="text;html=1;align=center;verticalAlign=middle;resizable=0;points=[];autosize=1;strokeColor=none;fillColor=none;fontSize=14;fontFamily=Times New Roman;fontColor=#000000;" parent="1" vertex="1">
                    <mxGeometry x="365" y="235" width="50" height="30" as="geometry"/>
                </mxCell>
                <mxCell id="8zzSYr8SPr4C44vhaHoF-9" value="" style="edgeStyle=none;html=1;strokeColor=#000000;strokeWidth=3;fontFamily=Times New Roman;fontSize=14;fontColor=#000000;" parent="1" source="8zzSYr8SPr4C44vhaHoF-6" target="8zzSYr8SPr4C44vhaHoF-8" edge="1">
                    <mxGeometry relative="1" as="geometry"/>
                </mxCell>
                <mxCell id="8zzSYr8SPr4C44vhaHoF-6" value="errno = ENOMEM" style="shape=process;whiteSpace=wrap;html=1;backgroundOutline=1;strokeColor=#000000;fontFamily=Times New Roman;fontSize=14;fontColor=#000000;fillColor=#FFFFFF;" parent="1" vertex="1">
                    <mxGeometry x="365" y="360" width="150" height="60" as="geometry"/>
                </mxCell>
                <mxCell id="8zzSYr8SPr4C44vhaHoF-11" value="" style="edgeStyle=none;html=1;strokeColor=#000000;strokeWidth=3;fontFamily=Times New Roman;fontSize=14;fontColor=#000000;" parent="1" source="8zzSYr8SPr4C44vhaHoF-8" target="8zzSYr8SPr4C44vhaHoF-10" edge="1">
                    <mxGeometry relative="1" as="geometry"/>
                </mxCell>
                <mxCell id="8zzSYr8SPr4C44vhaHoF-8" value="perror(&quot;Error: &quot;)" style="shape=parallelogram;perimeter=parallelogramPerimeter;whiteSpace=wrap;html=1;fixedSize=1;strokeColor=#000000;fontFamily=Times New Roman;fontSize=14;fontColor=#000000;fillColor=#FFFFFF;" parent="1" vertex="1">
                    <mxGeometry x="360" y="460" width="160" height="60" as="geometry"/>
                </mxCell>
                <mxCell id="8zzSYr8SPr4C44vhaHoF-10" value="abort()" style="ellipse;whiteSpace=wrap;html=1;strokeColor=#000000;fontFamily=Times New Roman;fontSize=14;fontColor=#000000;fillColor=#FFFFFF;" parent="1" vertex="1">
                    <mxGeometry x="380" y="560" width="120" height="80" as="geometry"/>
                </mxCell>
                <mxCell id="8zzSYr8SPr4C44vhaHoF-12" value="" style="endArrow=classic;html=1;strokeColor=#000000;strokeWidth=3;fontFamily=Times New Roman;fontSize=14;fontColor=#000000;exitX=0.5;exitY=1;exitDx=0;exitDy=0;" parent="1" source="8zzSYr8SPr4C44vhaHoF-1" edge="1">
                    <mxGeometry width="50" height="50" relative="1" as="geometry">
                        <mxPoint x="290" y="490" as="sourcePoint"/>
                        <mxPoint x="260" y="440" as="targetPoint"/>
                    </mxGeometry>
                </mxCell>
                <mxCell id="8zzSYr8SPr4C44vhaHoF-13" value="array" style="ellipse;whiteSpace=wrap;html=1;strokeColor=#000000;fontFamily=Times New Roman;fontSize=14;fontColor=#000000;fillColor=#FFFFFF;" parent="1" vertex="1">
                    <mxGeometry x="200" y="440" width="120" height="80" as="geometry"/>
                </mxCell>
            </root>
        </mxGraphModel>
    </diagram>
    <diagram name="random_array" id="fe-0aIzdmb707dxMZwxB">
        <mxGraphModel dx="535" dy="475" grid="1" gridSize="10" guides="1" tooltips="1" connect="1" arrows="1" fold="1" page="1" pageScale="1" pageWidth="827" pageHeight="1169" background="#ffffff" math="0" shadow="0">
            <root>
                <mxCell id="0"/>
                <mxCell id="1" parent="0"/>
                <mxCell id="FZIqqEBbdKfMuZb5PTaa-4" value="" style="edgeStyle=none;html=1;strokeColor=#000000;strokeWidth=3;fontFamily=Times New Roman;fontSize=14;fontColor=#000000;" edge="1" parent="1" source="FZIqqEBbdKfMuZb5PTaa-1" target="FZIqqEBbdKfMuZb5PTaa-3">
                    <mxGeometry relative="1" as="geometry"/>
                </mxCell>
                <mxCell id="FZIqqEBbdKfMuZb5PTaa-1" value="*array, length" style="ellipse;whiteSpace=wrap;html=1;strokeColor=#000000;fontFamily=Times New Roman;fontSize=14;fontColor=#000000;fillColor=#FFFFFF;" vertex="1" parent="1">
                    <mxGeometry x="160" y="40" width="120" height="80" as="geometry"/>
                </mxCell>
                <mxCell id="FZIqqEBbdKfMuZb5PTaa-2" value="i &amp;lt; length" style="rhombus;whiteSpace=wrap;html=1;strokeColor=#000000;fontFamily=Times New Roman;fontSize=14;fontColor=#000000;fillColor=#FFFFFF;" vertex="1" parent="1">
                    <mxGeometry x="165" y="230" width="110" height="80" as="geometry"/>
                </mxCell>
                <mxCell id="FZIqqEBbdKfMuZb5PTaa-5" value="" style="edgeStyle=none;html=1;strokeColor=#000000;strokeWidth=3;fontFamily=Times New Roman;fontSize=14;fontColor=#000000;" edge="1" parent="1" source="FZIqqEBbdKfMuZb5PTaa-3" target="FZIqqEBbdKfMuZb5PTaa-2">
                    <mxGeometry relative="1" as="geometry"/>
                </mxCell>
                <mxCell id="FZIqqEBbdKfMuZb5PTaa-3" value="i = 0" style="shape=process;whiteSpace=wrap;html=1;backgroundOutline=1;strokeColor=#000000;fontFamily=Times New Roman;fontSize=14;fontColor=#000000;fillColor=#FFFFFF;" vertex="1" parent="1">
                    <mxGeometry x="110" y="150" width="220" height="60" as="geometry"/>
                </mxCell>
                <mxCell id="FZIqqEBbdKfMuZb5PTaa-6" value="" style="endArrow=classic;html=1;strokeColor=#000000;strokeWidth=3;fontFamily=Times New Roman;fontSize=14;fontColor=#000000;exitX=0.5;exitY=1;exitDx=0;exitDy=0;" edge="1" parent="1" source="FZIqqEBbdKfMuZb5PTaa-2">
                    <mxGeometry width="50" height="50" relative="1" as="geometry">
                        <mxPoint x="280" y="420" as="sourcePoint"/>
                        <mxPoint x="220" y="400" as="targetPoint"/>
                    </mxGeometry>
                </mxCell>
                <mxCell id="FZIqqEBbdKfMuZb5PTaa-7" value="true" style="text;html=1;align=center;verticalAlign=middle;resizable=0;points=[];autosize=1;strokeColor=none;fillColor=none;fontSize=14;fontFamily=Times New Roman;fontColor=#000000;" vertex="1" parent="1">
                    <mxGeometry x="160" y="330" width="50" height="30" as="geometry"/>
                </mxCell>
                <mxCell id="FZIqqEBbdKfMuZb5PTaa-10" value="" style="edgeStyle=none;html=1;strokeColor=#000000;strokeWidth=3;fontFamily=Times New Roman;fontSize=14;fontColor=#000000;" edge="1" parent="1" source="FZIqqEBbdKfMuZb5PTaa-8" target="FZIqqEBbdKfMuZb5PTaa-9">
                    <mxGeometry relative="1" as="geometry"/>
                </mxCell>
                <mxCell id="FZIqqEBbdKfMuZb5PTaa-8" value="array[i] = rand() % 200 - 100" style="shape=process;whiteSpace=wrap;html=1;backgroundOutline=1;strokeColor=#000000;fontFamily=Times New Roman;fontSize=14;fontColor=#000000;fillColor=#FFFFFF;" vertex="1" parent="1">
                    <mxGeometry x="110" y="400" width="215" height="60" as="geometry"/>
                </mxCell>
                <mxCell id="FZIqqEBbdKfMuZb5PTaa-9" value="i++" style="shape=process;whiteSpace=wrap;html=1;backgroundOutline=1;strokeColor=#000000;fontFamily=Times New Roman;fontSize=14;fontColor=#000000;fillColor=#FFFFFF;" vertex="1" parent="1">
                    <mxGeometry x="110" y="480" width="210" height="60" as="geometry"/>
                </mxCell>
                <mxCell id="FZIqqEBbdKfMuZb5PTaa-11" value="" style="endArrow=none;html=1;strokeColor=#000000;strokeWidth=3;fontFamily=Times New Roman;fontSize=14;fontColor=#000000;exitX=1;exitY=0.5;exitDx=0;exitDy=0;" edge="1" parent="1" source="FZIqqEBbdKfMuZb5PTaa-9">
                    <mxGeometry width="50" height="50" relative="1" as="geometry">
                        <mxPoint x="280" y="420" as="sourcePoint"/>
                        <mxPoint x="370" y="510" as="targetPoint"/>
                    </mxGeometry>
                </mxCell>
                <mxCell id="FZIqqEBbdKfMuZb5PTaa-13" value="" style="endArrow=none;html=1;strokeColor=#000000;strokeWidth=3;fontFamily=Times New Roman;fontSize=14;fontColor=#000000;" edge="1" parent="1">
                    <mxGeometry width="50" height="50" relative="1" as="geometry">
                        <mxPoint x="370" y="510" as="sourcePoint"/>
                        <mxPoint x="370" y="270" as="targetPoint"/>
                    </mxGeometry>
                </mxCell>
                <mxCell id="FZIqqEBbdKfMuZb5PTaa-14" value="" style="endArrow=classic;html=1;strokeColor=#000000;strokeWidth=3;fontFamily=Times New Roman;fontSize=14;fontColor=#000000;entryX=1;entryY=0.5;entryDx=0;entryDy=0;" edge="1" parent="1" target="FZIqqEBbdKfMuZb5PTaa-2">
                    <mxGeometry width="50" height="50" relative="1" as="geometry">
                        <mxPoint x="370" y="270" as="sourcePoint"/>
                        <mxPoint x="330" y="370" as="targetPoint"/>
                    </mxGeometry>
                </mxCell>
            </root>
        </mxGraphModel>
    </diagram>
    <diagram name="user_choice" id="mff0K9OygaQkSzyMC_1k">
        <mxGraphModel dx="535" dy="475" grid="1" gridSize="10" guides="1" tooltips="1" connect="1" arrows="1" fold="1" page="1" pageScale="1" pageWidth="827" pageHeight="1169" background="#ffffff" math="0" shadow="0">
            <root>
                <mxCell id="0"/>
                <mxCell id="1" parent="0"/>
                <mxCell id="A7lQrGsJFIJaW99qyyGC-4" value="" style="edgeStyle=none;html=1;strokeColor=#000000;strokeWidth=3;fontFamily=Times New Roman;fontSize=14;fontColor=#000000;" edge="1" parent="1" source="A7lQrGsJFIJaW99qyyGC-1" target="A7lQrGsJFIJaW99qyyGC-2">
                    <mxGeometry relative="1" as="geometry"/>
                </mxCell>
                <mxCell id="A7lQrGsJFIJaW99qyyGC-1" value="*array, length" style="ellipse;whiteSpace=wrap;html=1;strokeColor=#000000;fontFamily=Times New Roman;fontSize=14;fontColor=#000000;fillColor=#FFFFFF;" vertex="1" parent="1">
                    <mxGeometry x="200" y="40" width="120" height="80" as="geometry"/>
                </mxCell>
                <mxCell id="A7lQrGsJFIJaW99qyyGC-5" value="" style="edgeStyle=none;html=1;strokeColor=#000000;strokeWidth=3;fontFamily=Times New Roman;fontSize=14;fontColor=#000000;" edge="1" parent="1" source="A7lQrGsJFIJaW99qyyGC-2" target="A7lQrGsJFIJaW99qyyGC-3">
                    <mxGeometry relative="1" as="geometry"/>
                </mxCell>
                <mxCell id="A7lQrGsJFIJaW99qyyGC-2" value="i = 0" style="shape=process;whiteSpace=wrap;html=1;backgroundOutline=1;strokeColor=#000000;fontFamily=Times New Roman;fontSize=14;fontColor=#000000;fillColor=#FFFFFF;" vertex="1" parent="1">
                    <mxGeometry x="190" y="150" width="140" height="60" as="geometry"/>
                </mxCell>
                <mxCell id="A7lQrGsJFIJaW99qyyGC-3" value="i &amp;lt; length" style="rhombus;whiteSpace=wrap;html=1;strokeColor=#000000;fontFamily=Times New Roman;fontSize=14;fontColor=#000000;fillColor=#FFFFFF;" vertex="1" parent="1">
                    <mxGeometry x="220" y="240" width="80" height="80" as="geometry"/>
                </mxCell>
                <mxCell id="A7lQrGsJFIJaW99qyyGC-6" value="" style="endArrow=classic;html=1;strokeColor=#000000;strokeWidth=3;fontFamily=Times New Roman;fontSize=14;fontColor=#000000;exitX=0.5;exitY=1;exitDx=0;exitDy=0;" edge="1" parent="1" source="A7lQrGsJFIJaW99qyyGC-3">
                    <mxGeometry width="50" height="50" relative="1" as="geometry">
                        <mxPoint x="290" y="350" as="sourcePoint"/>
                        <mxPoint x="260" y="400" as="targetPoint"/>
                    </mxGeometry>
                </mxCell>
                <mxCell id="A7lQrGsJFIJaW99qyyGC-7" value="true" style="text;html=1;align=center;verticalAlign=middle;resizable=0;points=[];autosize=1;strokeColor=none;fillColor=none;fontSize=14;fontFamily=Times New Roman;fontColor=#000000;" vertex="1" parent="1">
                    <mxGeometry x="200" y="330" width="50" height="30" as="geometry"/>
                </mxCell>
                <mxCell id="A7lQrGsJFIJaW99qyyGC-10" value="" style="edgeStyle=none;html=1;strokeColor=#000000;strokeWidth=3;fontFamily=Times New Roman;fontSize=14;fontColor=#000000;" edge="1" parent="1" source="A7lQrGsJFIJaW99qyyGC-8" target="A7lQrGsJFIJaW99qyyGC-9">
                    <mxGeometry relative="1" as="geometry"/>
                </mxCell>
                <mxCell id="A7lQrGsJFIJaW99qyyGC-8" value="array[i] = get_int()" style="shape=process;whiteSpace=wrap;html=1;backgroundOutline=1;strokeColor=#000000;fontFamily=Times New Roman;fontSize=14;fontColor=#000000;fillColor=#FFFFFF;" vertex="1" parent="1">
                    <mxGeometry x="185" y="400" width="150" height="60" as="geometry"/>
                </mxCell>
                <mxCell id="A7lQrGsJFIJaW99qyyGC-9" value="i++" style="shape=process;whiteSpace=wrap;html=1;backgroundOutline=1;strokeColor=#000000;fontFamily=Times New Roman;fontSize=14;fontColor=#000000;fillColor=#FFFFFF;" vertex="1" parent="1">
                    <mxGeometry x="185" y="480" width="150" height="60" as="geometry"/>
                </mxCell>
                <mxCell id="A7lQrGsJFIJaW99qyyGC-11" value="" style="endArrow=none;html=1;strokeColor=#000000;strokeWidth=3;fontFamily=Times New Roman;fontSize=14;fontColor=#000000;exitX=1;exitY=0.5;exitDx=0;exitDy=0;" edge="1" parent="1" source="A7lQrGsJFIJaW99qyyGC-9">
                    <mxGeometry width="50" height="50" relative="1" as="geometry">
                        <mxPoint x="270" y="400" as="sourcePoint"/>
                        <mxPoint x="390" y="510" as="targetPoint"/>
                    </mxGeometry>
                </mxCell>
                <mxCell id="A7lQrGsJFIJaW99qyyGC-12" value="" style="endArrow=classic;html=1;strokeColor=#000000;strokeWidth=3;fontFamily=Times New Roman;fontSize=14;fontColor=#000000;entryX=1;entryY=0.5;entryDx=0;entryDy=0;" edge="1" parent="1" target="A7lQrGsJFIJaW99qyyGC-3">
                    <mxGeometry width="50" height="50" relative="1" as="geometry">
                        <mxPoint x="390" y="280" as="sourcePoint"/>
                        <mxPoint x="400" y="280" as="targetPoint"/>
                    </mxGeometry>
                </mxCell>
                <mxCell id="A7lQrGsJFIJaW99qyyGC-13" value="" style="endArrow=none;html=1;strokeColor=#000000;strokeWidth=3;fontFamily=Times New Roman;fontSize=14;fontColor=#000000;" edge="1" parent="1">
                    <mxGeometry width="50" height="50" relative="1" as="geometry">
                        <mxPoint x="390" y="510" as="sourcePoint"/>
                        <mxPoint x="390" y="280" as="targetPoint"/>
                    </mxGeometry>
                </mxCell>
            </root>
        </mxGraphModel>
    </diagram>
    <diagram name="get_int" id="rynZjQ3i9D-BQmcvUVRi">
        <mxGraphModel dx="535" dy="475" grid="1" gridSize="10" guides="1" tooltips="1" connect="1" arrows="1" fold="1" page="1" pageScale="1" pageWidth="827" pageHeight="1169" background="#ffffff" math="0" shadow="0">
            <root>
                <mxCell id="0"/>
                <mxCell id="1" parent="0"/>
                <mxCell id="7ZlSvFh9n26bm6qY3kz7-4" value="" style="edgeStyle=none;html=1;strokeColor=#000000;strokeWidth=3;fontFamily=Times New Roman;fontSize=14;fontColor=#000000;" edge="1" parent="1" source="7ZlSvFh9n26bm6qY3kz7-1" target="7ZlSvFh9n26bm6qY3kz7-2">
                    <mxGeometry relative="1" as="geometry"/>
                </mxCell>
                <mxCell id="7ZlSvFh9n26bm6qY3kz7-1" value="Начало" style="ellipse;whiteSpace=wrap;html=1;strokeColor=#000000;fontFamily=Times New Roman;fontSize=14;fontColor=#000000;fillColor=#FFFFFF;" vertex="1" parent="1">
                    <mxGeometry x="200" y="40" width="120" height="80" as="geometry"/>
                </mxCell>
                <mxCell id="7ZlSvFh9n26bm6qY3kz7-5" value="" style="edgeStyle=none;html=1;strokeColor=#000000;strokeWidth=3;fontFamily=Times New Roman;fontSize=14;fontColor=#000000;" edge="1" parent="1" source="7ZlSvFh9n26bm6qY3kz7-2" target="7ZlSvFh9n26bm6qY3kz7-3">
                    <mxGeometry relative="1" as="geometry"/>
                </mxCell>
                <mxCell id="7ZlSvFh9n26bm6qY3kz7-2" value="number" style="shape=process;whiteSpace=wrap;html=1;backgroundOutline=1;strokeColor=#000000;fontFamily=Times New Roman;fontSize=14;fontColor=#000000;fillColor=#FFFFFF;" vertex="1" parent="1">
                    <mxGeometry x="200" y="150" width="120" height="60" as="geometry"/>
                </mxCell>
                <mxCell id="7ZlSvFh9n26bm6qY3kz7-3" value="scanf(&quot;%d&quot;, &amp;amp;number) != 1" style="rhombus;whiteSpace=wrap;html=1;strokeColor=#000000;fontFamily=Times New Roman;fontSize=14;fontColor=#000000;fillColor=#FFFFFF;" vertex="1" parent="1">
                    <mxGeometry x="170" y="240" width="180" height="80" as="geometry"/>
                </mxCell>
                <mxCell id="7ZlSvFh9n26bm6qY3kz7-6" value="" style="endArrow=none;html=1;strokeColor=#000000;strokeWidth=3;fontFamily=Times New Roman;fontSize=14;fontColor=#000000;exitX=1;exitY=0.5;exitDx=0;exitDy=0;" edge="1" parent="1" source="7ZlSvFh9n26bm6qY3kz7-3">
                    <mxGeometry width="50" height="50" relative="1" as="geometry">
                        <mxPoint x="270" y="430" as="sourcePoint"/>
                        <mxPoint x="410" y="280" as="targetPoint"/>
                    </mxGeometry>
                </mxCell>
                <mxCell id="7ZlSvFh9n26bm6qY3kz7-7" value="" style="endArrow=none;html=1;strokeColor=#000000;strokeWidth=3;fontFamily=Times New Roman;fontSize=14;fontColor=#000000;entryX=0;entryY=0.5;entryDx=0;entryDy=0;" edge="1" parent="1" target="7ZlSvFh9n26bm6qY3kz7-3">
                    <mxGeometry width="50" height="50" relative="1" as="geometry">
                        <mxPoint x="100" y="280" as="sourcePoint"/>
                        <mxPoint x="320" y="380" as="targetPoint"/>
                    </mxGeometry>
                </mxCell>
                <mxCell id="7ZlSvFh9n26bm6qY3kz7-8" value="" style="endArrow=classic;html=1;strokeColor=#000000;strokeWidth=3;fontFamily=Times New Roman;fontSize=14;fontColor=#000000;" edge="1" parent="1">
                    <mxGeometry width="50" height="50" relative="1" as="geometry">
                        <mxPoint x="410" y="280" as="sourcePoint"/>
                        <mxPoint x="410" y="400" as="targetPoint"/>
                    </mxGeometry>
                </mxCell>
                <mxCell id="7ZlSvFh9n26bm6qY3kz7-9" value="" style="endArrow=classic;html=1;strokeColor=#000000;strokeWidth=3;fontFamily=Times New Roman;fontSize=14;fontColor=#000000;" edge="1" parent="1">
                    <mxGeometry width="50" height="50" relative="1" as="geometry">
                        <mxPoint x="100" y="280" as="sourcePoint"/>
                        <mxPoint x="100" y="400" as="targetPoint"/>
                    </mxGeometry>
                </mxCell>
                <mxCell id="7ZlSvFh9n26bm6qY3kz7-10" value="true" style="text;html=1;align=center;verticalAlign=middle;resizable=0;points=[];autosize=1;strokeColor=none;fillColor=none;fontSize=14;fontFamily=Times New Roman;fontColor=#000000;" vertex="1" parent="1">
                    <mxGeometry x="360" y="250" width="50" height="30" as="geometry"/>
                </mxCell>
                <mxCell id="7ZlSvFh9n26bm6qY3kz7-12" value="false" style="text;html=1;align=center;verticalAlign=middle;resizable=0;points=[];autosize=1;strokeColor=none;fillColor=none;fontSize=14;fontFamily=Times New Roman;fontColor=#000000;" vertex="1" parent="1">
                    <mxGeometry x="105" y="245" width="50" height="30" as="geometry"/>
                </mxCell>
                <mxCell id="7ZlSvFh9n26bm6qY3kz7-13" value="number" style="ellipse;whiteSpace=wrap;html=1;strokeColor=#000000;fontFamily=Times New Roman;fontSize=14;fontColor=#000000;fillColor=#FFFFFF;" vertex="1" parent="1">
                    <mxGeometry x="40" y="400" width="120" height="80" as="geometry"/>
                </mxCell>
                <mxCell id="7ZlSvFh9n26bm6qY3kz7-16" value="" style="edgeStyle=none;html=1;strokeColor=#000000;strokeWidth=3;fontFamily=Times New Roman;fontSize=14;fontColor=#000000;" edge="1" parent="1" source="7ZlSvFh9n26bm6qY3kz7-14" target="7ZlSvFh9n26bm6qY3kz7-15">
                    <mxGeometry relative="1" as="geometry"/>
                </mxCell>
                <mxCell id="7ZlSvFh9n26bm6qY3kz7-14" value="&quot;Insert a valid value&quot;" style="shape=parallelogram;perimeter=parallelogramPerimeter;whiteSpace=wrap;html=1;fixedSize=1;strokeColor=#000000;fontFamily=Times New Roman;fontSize=14;fontColor=#000000;fillColor=#FFFFFF;" vertex="1" parent="1">
                    <mxGeometry x="344" y="400" width="140" height="60" as="geometry"/>
                </mxCell>
                <mxCell id="7ZlSvFh9n26bm6qY3kz7-15" value="abort()" style="ellipse;whiteSpace=wrap;html=1;strokeColor=#000000;fontFamily=Times New Roman;fontSize=14;fontColor=#000000;fillColor=#FFFFFF;" vertex="1" parent="1">
                    <mxGeometry x="354" y="480" width="120" height="80" as="geometry"/>
                </mxCell>
            </root>
        </mxGraphModel>
    </diagram>
    <diagram name="get_size_t" id="27cvgfNoRoLmvlTdwjf2">
        <mxGraphModel dx="535" dy="475" grid="1" gridSize="10" guides="1" tooltips="1" connect="1" arrows="1" fold="1" page="1" pageScale="1" pageWidth="827" pageHeight="1169" background="#ffffff" math="0" shadow="0">
            <root>
                <mxCell id="0"/>
                <mxCell id="1" parent="0"/>
                <mxCell id="n-0HUFPptPaxh8Y0wqO2-4" value="" style="edgeStyle=none;html=1;strokeColor=#000000;strokeWidth=3;fontFamily=Times New Roman;fontSize=14;fontColor=#000000;" edge="1" parent="1" source="n-0HUFPptPaxh8Y0wqO2-1" target="n-0HUFPptPaxh8Y0wqO2-2">
                    <mxGeometry relative="1" as="geometry"/>
                </mxCell>
                <mxCell id="n-0HUFPptPaxh8Y0wqO2-1" value="Начало" style="ellipse;whiteSpace=wrap;html=1;strokeColor=#000000;fontFamily=Times New Roman;fontSize=14;fontColor=#000000;fillColor=#FFFFFF;" vertex="1" parent="1">
                    <mxGeometry x="200" y="40" width="120" height="80" as="geometry"/>
                </mxCell>
                <mxCell id="n-0HUFPptPaxh8Y0wqO2-5" value="" style="edgeStyle=none;html=1;strokeColor=#000000;strokeWidth=3;fontFamily=Times New Roman;fontSize=14;fontColor=#000000;" edge="1" parent="1" source="n-0HUFPptPaxh8Y0wqO2-2" target="n-0HUFPptPaxh8Y0wqO2-3">
                    <mxGeometry relative="1" as="geometry"/>
                </mxCell>
                <mxCell id="n-0HUFPptPaxh8Y0wqO2-2" value="number = get_int()" style="shape=process;whiteSpace=wrap;html=1;backgroundOutline=1;strokeColor=#000000;fontFamily=Times New Roman;fontSize=14;fontColor=#000000;fillColor=#FFFFFF;" vertex="1" parent="1">
                    <mxGeometry x="185" y="150" width="150" height="60" as="geometry"/>
                </mxCell>
                <mxCell id="n-0HUFPptPaxh8Y0wqO2-3" value="number &amp;lt;= 0" style="rhombus;whiteSpace=wrap;html=1;strokeColor=#000000;fontFamily=Times New Roman;fontSize=14;fontColor=#000000;fillColor=#FFFFFF;" vertex="1" parent="1">
                    <mxGeometry x="205" y="240" width="110" height="80" as="geometry"/>
                </mxCell>
                <mxCell id="n-0HUFPptPaxh8Y0wqO2-6" value="" style="endArrow=none;html=1;strokeColor=#000000;strokeWidth=3;fontFamily=Times New Roman;fontSize=14;fontColor=#000000;exitX=1;exitY=0.5;exitDx=0;exitDy=0;" edge="1" parent="1" source="n-0HUFPptPaxh8Y0wqO2-3">
                    <mxGeometry width="50" height="50" relative="1" as="geometry">
                        <mxPoint x="250" y="260" as="sourcePoint"/>
                        <mxPoint x="380" y="280" as="targetPoint"/>
                    </mxGeometry>
                </mxCell>
                <mxCell id="n-0HUFPptPaxh8Y0wqO2-8" value="" style="endArrow=none;html=1;strokeColor=#000000;strokeWidth=3;fontFamily=Times New Roman;fontSize=14;fontColor=#000000;exitX=1;exitY=0.5;exitDx=0;exitDy=0;" edge="1" parent="1">
                    <mxGeometry width="50" height="50" relative="1" as="geometry">
                        <mxPoint x="140" y="279.5" as="sourcePoint"/>
                        <mxPoint x="205" y="279.5" as="targetPoint"/>
                    </mxGeometry>
                </mxCell>
                <mxCell id="n-0HUFPptPaxh8Y0wqO2-9" value="" style="endArrow=classic;html=1;strokeColor=#000000;strokeWidth=3;fontFamily=Times New Roman;fontSize=14;fontColor=#000000;" edge="1" parent="1">
                    <mxGeometry width="50" height="50" relative="1" as="geometry">
                        <mxPoint x="380" y="280" as="sourcePoint"/>
                        <mxPoint x="380" y="360" as="targetPoint"/>
                    </mxGeometry>
                </mxCell>
                <mxCell id="n-0HUFPptPaxh8Y0wqO2-10" value="" style="endArrow=classic;html=1;strokeColor=#000000;strokeWidth=3;fontFamily=Times New Roman;fontSize=14;fontColor=#000000;" edge="1" parent="1">
                    <mxGeometry width="50" height="50" relative="1" as="geometry">
                        <mxPoint x="140" y="280" as="sourcePoint"/>
                        <mxPoint x="140" y="360" as="targetPoint"/>
                    </mxGeometry>
                </mxCell>
                <mxCell id="n-0HUFPptPaxh8Y0wqO2-11" value="true" style="text;html=1;align=center;verticalAlign=middle;resizable=0;points=[];autosize=1;strokeColor=none;fillColor=none;fontSize=14;fontFamily=Times New Roman;fontColor=#000000;" vertex="1" parent="1">
                    <mxGeometry x="315" y="245" width="50" height="30" as="geometry"/>
                </mxCell>
                <mxCell id="n-0HUFPptPaxh8Y0wqO2-12" value="false" style="text;html=1;align=center;verticalAlign=middle;resizable=0;points=[];autosize=1;strokeColor=none;fillColor=none;fontSize=14;fontFamily=Times New Roman;fontColor=#000000;" vertex="1" parent="1">
                    <mxGeometry x="155" y="245" width="50" height="30" as="geometry"/>
                </mxCell>
                <mxCell id="n-0HUFPptPaxh8Y0wqO2-13" value="errno = ERANGE" style="shape=process;whiteSpace=wrap;html=1;backgroundOutline=1;strokeColor=#000000;fontFamily=Times New Roman;fontSize=14;fontColor=#000000;fillColor=#FFFFFF;" vertex="1" parent="1">
                    <mxGeometry x="315" y="360" width="130" height="60" as="geometry"/>
                </mxCell>
                <mxCell id="n-0HUFPptPaxh8Y0wqO2-14" value="perror(&quot;Error: &quot;)" style="shape=parallelogram;perimeter=parallelogramPerimeter;whiteSpace=wrap;html=1;fixedSize=1;strokeColor=#000000;fontFamily=Times New Roman;fontSize=14;fontColor=#000000;fillColor=#FFFFFF;" vertex="1" parent="1">
                    <mxGeometry x="312.5" y="450" width="135" height="60" as="geometry"/>
                </mxCell>
                <mxCell id="n-0HUFPptPaxh8Y0wqO2-15" value="abort()" style="ellipse;whiteSpace=wrap;html=1;strokeColor=#000000;fontFamily=Times New Roman;fontSize=14;fontColor=#000000;fillColor=#FFFFFF;" vertex="1" parent="1">
                    <mxGeometry x="320" y="530" width="120" height="80" as="geometry"/>
                </mxCell>
                <mxCell id="n-0HUFPptPaxh8Y0wqO2-17" value="" style="endArrow=classic;html=1;strokeColor=#000000;strokeWidth=3;fontFamily=Times New Roman;fontSize=14;fontColor=#000000;exitX=0.5;exitY=1;exitDx=0;exitDy=0;entryX=0.5;entryY=0;entryDx=0;entryDy=0;" edge="1" parent="1" source="n-0HUFPptPaxh8Y0wqO2-13" target="n-0HUFPptPaxh8Y0wqO2-14">
                    <mxGeometry width="50" height="50" relative="1" as="geometry">
                        <mxPoint x="320" y="510" as="sourcePoint"/>
                        <mxPoint x="370" y="460" as="targetPoint"/>
                    </mxGeometry>
                </mxCell>
                <mxCell id="n-0HUFPptPaxh8Y0wqO2-18" value="" style="endArrow=classic;html=1;strokeColor=#000000;strokeWidth=3;fontFamily=Times New Roman;fontSize=14;fontColor=#000000;exitX=0.5;exitY=1;exitDx=0;exitDy=0;entryX=0.5;entryY=0;entryDx=0;entryDy=0;" edge="1" parent="1" source="n-0HUFPptPaxh8Y0wqO2-14" target="n-0HUFPptPaxh8Y0wqO2-15">
                    <mxGeometry width="50" height="50" relative="1" as="geometry">
                        <mxPoint x="320" y="510" as="sourcePoint"/>
                        <mxPoint x="370" y="460" as="targetPoint"/>
                    </mxGeometry>
                </mxCell>
                <mxCell id="n-0HUFPptPaxh8Y0wqO2-19" value="(size_t)number" style="ellipse;whiteSpace=wrap;html=1;strokeColor=#000000;fontFamily=Times New Roman;fontSize=14;fontColor=#000000;fillColor=#FFFFFF;" vertex="1" parent="1">
                    <mxGeometry x="80" y="360" width="120" height="80" as="geometry"/>
                </mxCell>
            </root>
        </mxGraphModel>
    </diagram>
    <diagram name="free_array" id="KPuBiG-XjTKhPdARNGkL">
        <mxGraphModel dx="535" dy="475" grid="1" gridSize="10" guides="1" tooltips="1" connect="1" arrows="1" fold="1" page="1" pageScale="1" pageWidth="827" pageHeight="1169" background="#ffffff" math="0" shadow="0">
            <root>
                <mxCell id="0"/>
                <mxCell id="1" parent="0"/>
                <mxCell id="1LHDc8_QneYfTbeJ3-yD-3" value="" style="edgeStyle=none;html=1;strokeColor=#000000;strokeWidth=3;fontFamily=Times New Roman;fontSize=14;fontColor=#000000;" parent="1" source="1LHDc8_QneYfTbeJ3-yD-1" target="1LHDc8_QneYfTbeJ3-yD-2" edge="1">
                    <mxGeometry relative="1" as="geometry"/>
                </mxCell>
                <mxCell id="1LHDc8_QneYfTbeJ3-yD-1" value="*array" style="ellipse;whiteSpace=wrap;html=1;strokeColor=#000000;fontFamily=Times New Roman;fontSize=14;fontColor=#000000;fillColor=#FFFFFF;" parent="1" vertex="1">
                    <mxGeometry x="320" y="40" width="120" height="80" as="geometry"/>
                </mxCell>
                <mxCell id="1LHDc8_QneYfTbeJ3-yD-5" value="" style="edgeStyle=none;html=1;strokeColor=#000000;strokeWidth=3;fontFamily=Times New Roman;fontSize=14;fontColor=#000000;" parent="1" source="1LHDc8_QneYfTbeJ3-yD-2" target="1LHDc8_QneYfTbeJ3-yD-4" edge="1">
                    <mxGeometry relative="1" as="geometry"/>
                </mxCell>
                <mxCell id="1LHDc8_QneYfTbeJ3-yD-2" value="NULL != array" style="rhombus;whiteSpace=wrap;html=1;strokeColor=#000000;fontFamily=Times New Roman;fontSize=14;fontColor=#000000;fillColor=#FFFFFF;" parent="1" vertex="1">
                    <mxGeometry x="315" y="140" width="130" height="80" as="geometry"/>
                </mxCell>
                <mxCell id="1LHDc8_QneYfTbeJ3-yD-4" value="free(array)" style="shape=process;whiteSpace=wrap;html=1;backgroundOutline=1;strokeColor=#000000;fontFamily=Times New Roman;fontSize=14;fontColor=#000000;fillColor=#FFFFFF;" parent="1" vertex="1">
                    <mxGeometry x="320" y="290" width="120" height="60" as="geometry"/>
                </mxCell>
                <mxCell id="1LHDc8_QneYfTbeJ3-yD-6" value="true" style="text;html=1;align=center;verticalAlign=middle;resizable=0;points=[];autosize=1;strokeColor=none;fillColor=none;fontSize=14;fontFamily=Times New Roman;fontColor=#000000;" parent="1" vertex="1">
                    <mxGeometry x="385" y="235" width="50" height="30" as="geometry"/>
                </mxCell>
            </root>
        </mxGraphModel>
    </diagram>
    <diagram id="VRD_fVQKuRVUoXAVT--y" name="main">
        <mxGraphModel dx="1362" dy="475" grid="1" gridSize="10" guides="1" tooltips="1" connect="1" arrows="1" fold="1" page="1" pageScale="1" pageWidth="827" pageHeight="1169" background="#ffffff" math="0" shadow="0">
            <root>
                <mxCell id="0"/>
                <mxCell id="1" parent="0"/>
                <mxCell id="kHzy77mAvi_Lv1Di29kx-1" value="Начало&lt;div style=&quot;text-align: justify;&quot;&gt;&lt;/div&gt;" style="ellipse;whiteSpace=wrap;html=1;strokeColor=#000000;fontFamily=Times New Roman;fillColor=#FFFFFF;fontSize=14;fontColor=#000000;" vertex="1" parent="1">
                    <mxGeometry x="200" y="40" width="120" height="80" as="geometry"/>
                </mxCell>
                <mxCell id="kHzy77mAvi_Lv1Di29kx-10" style="edgeStyle=none;html=1;exitX=0.5;exitY=1;exitDx=0;exitDy=0;entryX=0.5;entryY=0;entryDx=0;entryDy=0;strokeColor=#000000;strokeWidth=3;" edge="1" parent="1" source="kHzy77mAvi_Lv1Di29kx-2" target="kHzy77mAvi_Lv1Di29kx-3">
                    <mxGeometry relative="1" as="geometry"/>
                </mxCell>
                <mxCell id="kHzy77mAvi_Lv1Di29kx-2" value="length = get_size_t()" style="shape=process;whiteSpace=wrap;html=1;backgroundOutline=1;strokeColor=#000000;fontFamily=Times New Roman;fontSize=14;fontColor=#000000;fillColor=#FFFFFF;" vertex="1" parent="1">
                    <mxGeometry x="175" y="150" width="170" height="60" as="geometry"/>
                </mxCell>
                <mxCell id="kHzy77mAvi_Lv1Di29kx-11" style="edgeStyle=none;html=1;exitX=0.5;exitY=1;exitDx=0;exitDy=0;entryX=0.5;entryY=0;entryDx=0;entryDy=0;strokeColor=#000000;strokeWidth=3;" edge="1" parent="1" source="kHzy77mAvi_Lv1Di29kx-3" target="kHzy77mAvi_Lv1Di29kx-4">
                    <mxGeometry relative="1" as="geometry"/>
                </mxCell>
                <mxCell id="kHzy77mAvi_Lv1Di29kx-3" value="choice = get_int()" style="shape=process;whiteSpace=wrap;html=1;backgroundOutline=1;strokeColor=#000000;fontFamily=Times New Roman;fontSize=14;fontColor=#000000;fillColor=#FFFFFF;" vertex="1" parent="1">
                    <mxGeometry x="147" y="240" width="226" height="60" as="geometry"/>
                </mxCell>
                <mxCell id="kHzy77mAvi_Lv1Di29kx-12" style="edgeStyle=none;html=1;exitX=0.5;exitY=1;exitDx=0;exitDy=0;entryX=0.5;entryY=0;entryDx=0;entryDy=0;strokeColor=#000000;strokeWidth=3;" edge="1" parent="1" source="kHzy77mAvi_Lv1Di29kx-4" target="kHzy77mAvi_Lv1Di29kx-8">
                    <mxGeometry relative="1" as="geometry"/>
                </mxCell>
                <mxCell id="kHzy77mAvi_Lv1Di29kx-4" value="*mas = get_mem_array(length)" style="shape=process;whiteSpace=wrap;html=1;backgroundOutline=1;strokeColor=#000000;fontFamily=Times New Roman;fontSize=14;fontColor=#000000;fillColor=#FFFFFF;" vertex="1" parent="1">
                    <mxGeometry x="147" y="330" width="226" height="60" as="geometry"/>
                </mxCell>
                <mxCell id="kHzy77mAvi_Lv1Di29kx-5" value="enum Choices" style="swimlane;whiteSpace=wrap;html=1;strokeColor=#000000;fontFamily=Times New Roman;fontSize=14;fontColor=#000000;fillColor=#FFFFFF;" vertex="1" parent="1">
                    <mxGeometry x="440" y="250" width="140" height="110" as="geometry"/>
                </mxCell>
                <mxCell id="kHzy77mAvi_Lv1Di29kx-6" value="random_choice = 1" style="text;html=1;align=center;verticalAlign=middle;resizable=0;points=[];autosize=1;strokeColor=none;fillColor=none;fontSize=14;fontFamily=Times New Roman;fontColor=#000000;" vertex="1" parent="kHzy77mAvi_Lv1Di29kx-5">
                    <mxGeometry y="35" width="130" height="30" as="geometry"/>
                </mxCell>
                <mxCell id="kHzy77mAvi_Lv1Di29kx-7" value="user_choice = 2" style="text;html=1;align=center;verticalAlign=middle;resizable=0;points=[];autosize=1;strokeColor=none;fillColor=none;fontSize=14;fontFamily=Times New Roman;fontColor=#000000;" vertex="1" parent="kHzy77mAvi_Lv1Di29kx-5">
                    <mxGeometry x="9.5" y="65" width="110" height="30" as="geometry"/>
                </mxCell>
                <mxCell id="kHzy77mAvi_Lv1Di29kx-8" value="switch((enum Choices)choice)" style="rhombus;whiteSpace=wrap;html=1;strokeColor=#000000;fontFamily=Times New Roman;fontSize=14;fontColor=#000000;fillColor=#FFFFFF;" vertex="1" parent="1">
                    <mxGeometry x="150" y="420" width="220" height="80" as="geometry"/>
                </mxCell>
                <mxCell id="kHzy77mAvi_Lv1Di29kx-9" value="" style="endArrow=classic;html=1;strokeColor=#000000;strokeWidth=3;exitX=0.5;exitY=1;exitDx=0;exitDy=0;entryX=0.5;entryY=0;entryDx=0;entryDy=0;" edge="1" parent="1" source="kHzy77mAvi_Lv1Di29kx-1" target="kHzy77mAvi_Lv1Di29kx-2">
                    <mxGeometry width="50" height="50" relative="1" as="geometry">
                        <mxPoint x="310" y="320" as="sourcePoint"/>
                        <mxPoint x="360" y="270" as="targetPoint"/>
                    </mxGeometry>
                </mxCell>
                <mxCell id="kHzy77mAvi_Lv1Di29kx-13" value="" style="endArrow=none;html=1;strokeColor=#000000;strokeWidth=3;exitX=0.5;exitY=1;exitDx=0;exitDy=0;" edge="1" parent="1" source="kHzy77mAvi_Lv1Di29kx-5">
                    <mxGeometry width="50" height="50" relative="1" as="geometry">
                        <mxPoint x="310" y="320" as="sourcePoint"/>
                        <mxPoint x="510" y="400" as="targetPoint"/>
                    </mxGeometry>
                </mxCell>
                <mxCell id="kHzy77mAvi_Lv1Di29kx-14" value="" style="endArrow=classic;html=1;strokeColor=#000000;strokeWidth=3;" edge="1" parent="1">
                    <mxGeometry width="50" height="50" relative="1" as="geometry">
                        <mxPoint x="510" y="400" as="sourcePoint"/>
                        <mxPoint x="260" y="400" as="targetPoint"/>
                    </mxGeometry>
                </mxCell>
                <mxCell id="kHzy77mAvi_Lv1Di29kx-15" style="edgeStyle=none;html=1;strokeColor=#000000;strokeWidth=3;fontFamily=Times New Roman;fontSize=14;fontColor=#000000;" edge="1" parent="1">
                    <mxGeometry relative="1" as="geometry">
                        <mxPoint x="259.5" y="710" as="targetPoint"/>
                        <mxPoint x="259.5" y="500" as="sourcePoint"/>
                    </mxGeometry>
                </mxCell>
                <mxCell id="kHzy77mAvi_Lv1Di29kx-17" value="" style="endArrow=classic;html=1;strokeColor=#000000;strokeWidth=3;fontFamily=Times New Roman;fontSize=14;fontColor=#000000;entryX=0;entryY=0.5;entryDx=0;entryDy=0;" edge="1" parent="1" target="kHzy77mAvi_Lv1Di29kx-25">
                    <mxGeometry width="50" height="50" relative="1" as="geometry">
                        <mxPoint x="260" y="647" as="sourcePoint"/>
                        <mxPoint x="410" y="662" as="targetPoint"/>
                        <Array as="points"/>
                    </mxGeometry>
                </mxCell>
                <mxCell id="kHzy77mAvi_Lv1Di29kx-18" value="case random choice" style="text;html=1;align=center;verticalAlign=middle;resizable=0;points=[];autosize=1;strokeColor=none;fillColor=none;fontSize=14;fontFamily=Times New Roman;fontColor=#000000;" vertex="1" parent="1">
                    <mxGeometry x="260" y="487" width="130" height="30" as="geometry"/>
                </mxCell>
                <mxCell id="kHzy77mAvi_Lv1Di29kx-19" value="default" style="text;html=1;align=center;verticalAlign=middle;resizable=0;points=[];autosize=1;strokeColor=none;fillColor=none;fontSize=14;fontFamily=Times New Roman;fontColor=#000000;" vertex="1" parent="1">
                    <mxGeometry x="295" y="622" width="60" height="30" as="geometry"/>
                </mxCell>
                <mxCell id="kHzy77mAvi_Lv1Di29kx-20" value="random_array(*mas, length)" style="shape=process;whiteSpace=wrap;html=1;backgroundOutline=1;strokeColor=#000000;fontFamily=Times New Roman;fontSize=14;fontColor=#000000;fillColor=#FFFFFF;" vertex="1" parent="1">
                    <mxGeometry x="410" y="492" width="210" height="60" as="geometry"/>
                </mxCell>
                <mxCell id="kHzy77mAvi_Lv1Di29kx-21" value="" style="endArrow=classic;html=1;strokeColor=#000000;strokeWidth=3;fontFamily=Times New Roman;fontSize=14;fontColor=#000000;entryX=0;entryY=0.5;entryDx=0;entryDy=0;" edge="1" parent="1" target="kHzy77mAvi_Lv1Di29kx-20">
                    <mxGeometry width="50" height="50" relative="1" as="geometry">
                        <mxPoint x="260" y="522" as="sourcePoint"/>
                        <mxPoint x="420" y="482" as="targetPoint"/>
                    </mxGeometry>
                </mxCell>
                <mxCell id="kHzy77mAvi_Lv1Di29kx-22" value="case user choice" style="text;html=1;align=center;verticalAlign=middle;resizable=0;points=[];autosize=1;strokeColor=none;fillColor=none;fontSize=14;fontFamily=Times New Roman;fontColor=#000000;" vertex="1" parent="1">
                    <mxGeometry x="270" y="562" width="110" height="30" as="geometry"/>
                </mxCell>
                <mxCell id="kHzy77mAvi_Lv1Di29kx-23" value="user_array(*mas, length)" style="shape=process;whiteSpace=wrap;html=1;backgroundOutline=1;strokeColor=#000000;fontFamily=Times New Roman;fontSize=14;fontColor=#000000;fillColor=#FFFFFF;" vertex="1" parent="1">
                    <mxGeometry x="410" y="562" width="210" height="60" as="geometry"/>
                </mxCell>
                <mxCell id="kHzy77mAvi_Lv1Di29kx-24" value="" style="endArrow=classic;html=1;strokeColor=#000000;strokeWidth=3;fontFamily=Times New Roman;fontSize=14;fontColor=#000000;entryX=0;entryY=0.5;entryDx=0;entryDy=0;" edge="1" parent="1" target="kHzy77mAvi_Lv1Di29kx-23">
                    <mxGeometry width="50" height="50" relative="1" as="geometry">
                        <mxPoint x="260" y="592" as="sourcePoint"/>
                        <mxPoint x="420" y="472" as="targetPoint"/>
                    </mxGeometry>
                </mxCell>
                <mxCell id="kHzy77mAvi_Lv1Di29kx-25" value="1" style="ellipse;whiteSpace=wrap;html=1;strokeColor=#000000;fontFamily=Times New Roman;fontSize=14;fontColor=#000000;fillColor=#FFFFFF;" vertex="1" parent="1">
                    <mxGeometry x="410" y="622" width="120" height="50" as="geometry"/>
                </mxCell>
                <mxCell id="kHzy77mAvi_Lv1Di29kx-26" value="" style="endArrow=none;html=1;strokeColor=#000000;strokeWidth=3;exitX=1;exitY=0.5;exitDx=0;exitDy=0;" edge="1" parent="1" source="kHzy77mAvi_Lv1Di29kx-20">
                    <mxGeometry width="50" height="50" relative="1" as="geometry">
                        <mxPoint x="500" y="632" as="sourcePoint"/>
                        <mxPoint x="680" y="522" as="targetPoint"/>
                    </mxGeometry>
                </mxCell>
                <mxCell id="kHzy77mAvi_Lv1Di29kx-27" value="" style="endArrow=none;html=1;strokeColor=#000000;strokeWidth=3;exitX=1;exitY=0.5;exitDx=0;exitDy=0;" edge="1" parent="1" source="kHzy77mAvi_Lv1Di29kx-23">
                    <mxGeometry width="50" height="50" relative="1" as="geometry">
                        <mxPoint x="500" y="632" as="sourcePoint"/>
                        <mxPoint x="680" y="592" as="targetPoint"/>
                    </mxGeometry>
                </mxCell>
                <mxCell id="kHzy77mAvi_Lv1Di29kx-28" value="" style="endArrow=none;html=1;strokeColor=#000000;strokeWidth=3;" edge="1" parent="1">
                    <mxGeometry width="50" height="50" relative="1" as="geometry">
                        <mxPoint x="680" y="522" as="sourcePoint"/>
                        <mxPoint x="680" y="682" as="targetPoint"/>
                    </mxGeometry>
                </mxCell>
                <mxCell id="kHzy77mAvi_Lv1Di29kx-29" value="" style="endArrow=classic;html=1;strokeColor=#000000;strokeWidth=3;" edge="1" parent="1">
                    <mxGeometry width="50" height="50" relative="1" as="geometry">
                        <mxPoint x="680" y="682" as="sourcePoint"/>
                        <mxPoint x="260" y="682" as="targetPoint"/>
                    </mxGeometry>
                </mxCell>
                <mxCell id="kHzy77mAvi_Lv1Di29kx-30" value="j&lt;font color=&quot;#000000&quot;&gt;NULL == first_task(*mas, length)&lt;/font&gt;" style="rhombus;whiteSpace=wrap;html=1;strokeColor=#000000;fillColor=#FFFFFF;" vertex="1" parent="1">
                    <mxGeometry x="150" y="710" width="220" height="80" as="geometry"/>
                </mxCell>
                <mxCell id="kHzy77mAvi_Lv1Di29kx-31" value="" style="endArrow=none;html=1;strokeColor=#000000;strokeWidth=3;fontFamily=Times New Roman;fontColor=#000000;exitX=1;exitY=0.5;exitDx=0;exitDy=0;" edge="1" parent="1" source="kHzy77mAvi_Lv1Di29kx-30">
                    <mxGeometry width="50" height="50" relative="1" as="geometry">
                        <mxPoint x="310" y="780" as="sourcePoint"/>
                        <mxPoint x="440" y="750" as="targetPoint"/>
                    </mxGeometry>
                </mxCell>
                <mxCell id="kHzy77mAvi_Lv1Di29kx-32" value="" style="endArrow=none;html=1;strokeColor=#000000;strokeWidth=3;fontFamily=Times New Roman;fontColor=#000000;exitX=1;exitY=0.5;exitDx=0;exitDy=0;" edge="1" parent="1">
                    <mxGeometry width="50" height="50" relative="1" as="geometry">
                        <mxPoint x="80" y="749.5" as="sourcePoint"/>
                        <mxPoint x="150" y="749.5" as="targetPoint"/>
                    </mxGeometry>
                </mxCell>
                <mxCell id="kHzy77mAvi_Lv1Di29kx-33" value="" style="endArrow=classic;html=1;strokeColor=#000000;strokeWidth=3;fontFamily=Times New Roman;fontColor=#000000;" edge="1" parent="1">
                    <mxGeometry width="50" height="50" relative="1" as="geometry">
                        <mxPoint x="80" y="750" as="sourcePoint"/>
                        <mxPoint x="80" y="840" as="targetPoint"/>
                    </mxGeometry>
                </mxCell>
                <mxCell id="kHzy77mAvi_Lv1Di29kx-34" value="" style="endArrow=classic;html=1;strokeColor=#000000;strokeWidth=3;fontFamily=Times New Roman;fontColor=#000000;" edge="1" parent="1">
                    <mxGeometry width="50" height="50" relative="1" as="geometry">
                        <mxPoint x="440" y="750" as="sourcePoint"/>
                        <mxPoint x="440" y="840" as="targetPoint"/>
                    </mxGeometry>
                </mxCell>
                <mxCell id="kHzy77mAvi_Lv1Di29kx-35" value="true" style="text;html=1;align=center;verticalAlign=middle;resizable=0;points=[];autosize=1;strokeColor=none;fillColor=none;fontFamily=Times New Roman;fontColor=#000000;" vertex="1" parent="1">
                    <mxGeometry x="370" y="720" width="40" height="30" as="geometry"/>
                </mxCell>
                <mxCell id="kHzy77mAvi_Lv1Di29kx-36" value="false" style="text;html=1;align=center;verticalAlign=middle;resizable=0;points=[];autosize=1;strokeColor=none;fillColor=none;fontFamily=Times New Roman;fontColor=#000000;" vertex="1" parent="1">
                    <mxGeometry x="97" y="720" width="50" height="30" as="geometry"/>
                </mxCell>
                <mxCell id="kHzy77mAvi_Lv1Di29kx-37" value="show_array(first_task(*mas, length), length)" style="shape=process;whiteSpace=wrap;html=1;backgroundOutline=1;strokeColor=#000000;fontFamily=Times New Roman;fontColor=#000000;fillColor=#FFFFFF;" vertex="1" parent="1">
                    <mxGeometry x="-60" y="840" width="270" height="60" as="geometry"/>
                </mxCell>
                <mxCell id="kHzy77mAvi_Lv1Di29kx-38" value="show_array(*mas, length)" style="shape=process;whiteSpace=wrap;html=1;backgroundOutline=1;strokeColor=#000000;fontFamily=Times New Roman;fontColor=#000000;fillColor=#FFFFFF;" vertex="1" parent="1">
                    <mxGeometry x="355" y="840" width="170" height="60" as="geometry"/>
                </mxCell>
                <mxCell id="kHzy77mAvi_Lv1Di29kx-39" value="j&lt;font color=&quot;#000000&quot;&gt;NULL == second_task(*mas, length)&lt;/font&gt;" style="rhombus;whiteSpace=wrap;html=1;strokeColor=#000000;fillColor=#FFFFFF;" vertex="1" parent="1">
                    <mxGeometry x="150" y="990" width="220" height="80" as="geometry"/>
                </mxCell>
                <mxCell id="kHzy77mAvi_Lv1Di29kx-40" value="" style="endArrow=none;html=1;strokeColor=#000000;strokeWidth=3;fontFamily=Times New Roman;fontColor=#000000;exitX=1;exitY=0.5;exitDx=0;exitDy=0;" edge="1" parent="1" source="kHzy77mAvi_Lv1Di29kx-39">
                    <mxGeometry width="50" height="50" relative="1" as="geometry">
                        <mxPoint x="310" y="1060" as="sourcePoint"/>
                        <mxPoint x="440" y="1030" as="targetPoint"/>
                    </mxGeometry>
                </mxCell>
                <mxCell id="kHzy77mAvi_Lv1Di29kx-41" value="" style="endArrow=none;html=1;strokeColor=#000000;strokeWidth=3;fontFamily=Times New Roman;fontColor=#000000;exitX=1;exitY=0.5;exitDx=0;exitDy=0;" edge="1" parent="1">
                    <mxGeometry width="50" height="50" relative="1" as="geometry">
                        <mxPoint x="80" y="1029.5" as="sourcePoint"/>
                        <mxPoint x="150" y="1029.5" as="targetPoint"/>
                    </mxGeometry>
                </mxCell>
                <mxCell id="kHzy77mAvi_Lv1Di29kx-42" value="" style="endArrow=classic;html=1;strokeColor=#000000;strokeWidth=3;fontFamily=Times New Roman;fontColor=#000000;" edge="1" parent="1">
                    <mxGeometry width="50" height="50" relative="1" as="geometry">
                        <mxPoint x="80" y="1030" as="sourcePoint"/>
                        <mxPoint x="80" y="1120" as="targetPoint"/>
                    </mxGeometry>
                </mxCell>
                <mxCell id="kHzy77mAvi_Lv1Di29kx-43" value="" style="endArrow=classic;html=1;strokeColor=#000000;strokeWidth=3;fontFamily=Times New Roman;fontColor=#000000;" edge="1" parent="1">
                    <mxGeometry width="50" height="50" relative="1" as="geometry">
                        <mxPoint x="440" y="1030" as="sourcePoint"/>
                        <mxPoint x="440" y="1120" as="targetPoint"/>
                    </mxGeometry>
                </mxCell>
                <mxCell id="kHzy77mAvi_Lv1Di29kx-44" value="true" style="text;html=1;align=center;verticalAlign=middle;resizable=0;points=[];autosize=1;strokeColor=none;fillColor=none;fontFamily=Times New Roman;fontColor=#000000;" vertex="1" parent="1">
                    <mxGeometry x="370" y="1000" width="40" height="30" as="geometry"/>
                </mxCell>
                <mxCell id="kHzy77mAvi_Lv1Di29kx-45" value="false" style="text;html=1;align=center;verticalAlign=middle;resizable=0;points=[];autosize=1;strokeColor=none;fillColor=none;fontFamily=Times New Roman;fontColor=#000000;" vertex="1" parent="1">
                    <mxGeometry x="97" y="1000" width="50" height="30" as="geometry"/>
                </mxCell>
                <mxCell id="kHzy77mAvi_Lv1Di29kx-46" value="show_array(second_task(*mas, length), length)" style="shape=process;whiteSpace=wrap;html=1;backgroundOutline=1;strokeColor=#000000;fontFamily=Times New Roman;fontColor=#000000;fillColor=#FFFFFF;" vertex="1" parent="1">
                    <mxGeometry x="-60" y="1120" width="290" height="60" as="geometry"/>
                </mxCell>
                <mxCell id="kHzy77mAvi_Lv1Di29kx-47" value="show_array(*mas, length)" style="shape=process;whiteSpace=wrap;html=1;backgroundOutline=1;strokeColor=#000000;fontFamily=Times New Roman;fontColor=#000000;fillColor=#FFFFFF;" vertex="1" parent="1">
                    <mxGeometry x="355" y="1120" width="170" height="60" as="geometry"/>
                </mxCell>
                <mxCell id="kHzy77mAvi_Lv1Di29kx-48" value="" style="endArrow=none;html=1;strokeColor=#000000;strokeWidth=3;fontFamily=Times New Roman;fontColor=#000000;exitX=0.5;exitY=1;exitDx=0;exitDy=0;" edge="1" parent="1" source="kHzy77mAvi_Lv1Di29kx-37">
                    <mxGeometry width="50" height="50" relative="1" as="geometry">
                        <mxPoint x="230" y="970" as="sourcePoint"/>
                        <mxPoint x="75" y="960" as="targetPoint"/>
                    </mxGeometry>
                </mxCell>
                <mxCell id="kHzy77mAvi_Lv1Di29kx-49" value="" style="endArrow=none;html=1;strokeColor=#000000;strokeWidth=3;fontFamily=Times New Roman;fontColor=#000000;entryX=0.5;entryY=1;entryDx=0;entryDy=0;" edge="1" parent="1" target="kHzy77mAvi_Lv1Di29kx-38">
                    <mxGeometry width="50" height="50" relative="1" as="geometry">
                        <mxPoint x="440" y="960" as="sourcePoint"/>
                        <mxPoint x="350" y="940" as="targetPoint"/>
                    </mxGeometry>
                </mxCell>
                <mxCell id="kHzy77mAvi_Lv1Di29kx-50" value="" style="endArrow=none;html=1;strokeColor=#000000;strokeWidth=3;fontFamily=Times New Roman;fontColor=#000000;" edge="1" parent="1">
                    <mxGeometry width="50" height="50" relative="1" as="geometry">
                        <mxPoint x="70" y="960" as="sourcePoint"/>
                        <mxPoint x="240" y="960" as="targetPoint"/>
                    </mxGeometry>
                </mxCell>
                <mxCell id="kHzy77mAvi_Lv1Di29kx-51" value="" style="endArrow=none;html=1;strokeColor=#000000;strokeWidth=3;fontFamily=Times New Roman;fontColor=#000000;" edge="1" parent="1">
                    <mxGeometry width="50" height="50" relative="1" as="geometry">
                        <mxPoint x="240" y="960" as="sourcePoint"/>
                        <mxPoint x="440" y="960" as="targetPoint"/>
                    </mxGeometry>
                </mxCell>
                <mxCell id="kHzy77mAvi_Lv1Di29kx-52" value="" style="endArrow=classic;html=1;strokeColor=#000000;strokeWidth=3;fontFamily=Times New Roman;fontColor=#000000;entryX=0.5;entryY=0;entryDx=0;entryDy=0;" edge="1" parent="1" target="kHzy77mAvi_Lv1Di29kx-39">
                    <mxGeometry width="50" height="50" relative="1" as="geometry">
                        <mxPoint x="260" y="960" as="sourcePoint"/>
                        <mxPoint x="350" y="940" as="targetPoint"/>
                    </mxGeometry>
                </mxCell>
                <mxCell id="kHzy77mAvi_Lv1Di29kx-56" value="" style="endArrow=none;html=1;strokeColor=#000000;strokeWidth=3;fontFamily=Times New Roman;fontColor=#000000;exitX=0.5;exitY=1;exitDx=0;exitDy=0;" edge="1" parent="1" source="kHzy77mAvi_Lv1Di29kx-46">
                    <mxGeometry width="50" height="50" relative="1" as="geometry">
                        <mxPoint x="230" y="1210" as="sourcePoint"/>
                        <mxPoint x="85" y="1240" as="targetPoint"/>
                    </mxGeometry>
                </mxCell>
                <mxCell id="kHzy77mAvi_Lv1Di29kx-57" value="" style="endArrow=none;html=1;strokeColor=#000000;strokeWidth=3;fontFamily=Times New Roman;fontColor=#000000;entryX=0.5;entryY=1;entryDx=0;entryDy=0;" edge="1" parent="1" target="kHzy77mAvi_Lv1Di29kx-47">
                    <mxGeometry width="50" height="50" relative="1" as="geometry">
                        <mxPoint x="440" y="1240" as="sourcePoint"/>
                        <mxPoint x="350" y="1160" as="targetPoint"/>
                    </mxGeometry>
                </mxCell>
                <mxCell id="kHzy77mAvi_Lv1Di29kx-58" value="" style="endArrow=none;html=1;strokeColor=#000000;strokeWidth=3;fontFamily=Times New Roman;fontColor=#000000;" edge="1" parent="1">
                    <mxGeometry width="50" height="50" relative="1" as="geometry">
                        <mxPoint x="80" y="1240" as="sourcePoint"/>
                        <mxPoint x="440" y="1240" as="targetPoint"/>
                    </mxGeometry>
                </mxCell>
                <mxCell id="kHzy77mAvi_Lv1Di29kx-59" value="" style="endArrow=classic;html=1;strokeColor=#000000;strokeWidth=3;fontFamily=Times New Roman;fontColor=#000000;" edge="1" parent="1">
                    <mxGeometry width="50" height="50" relative="1" as="geometry">
                        <mxPoint x="260" y="1240" as="sourcePoint"/>
                        <mxPoint x="260" y="1300" as="targetPoint"/>
                    </mxGeometry>
                </mxCell>
                <mxCell id="kHzy77mAvi_Lv1Di29kx-60" value="show_array(third_task(*ms, length), length)" style="shape=process;whiteSpace=wrap;html=1;backgroundOutline=1;strokeColor=#000000;fontFamily=Times New Roman;fontColor=#000000;fillColor=#FFFFFF;" vertex="1" parent="1">
                    <mxGeometry x="120" y="1300" width="280" height="60" as="geometry"/>
                </mxCell>
                <mxCell id="kHzy77mAvi_Lv1Di29kx-63" value="" style="endArrow=classic;html=1;strokeColor=#000000;strokeWidth=3;fontFamily=Times New Roman;fontColor=#000000;exitX=0.5;exitY=1;exitDx=0;exitDy=0;entryX=0.5;entryY=0;entryDx=0;entryDy=0;" edge="1" parent="1" source="kHzy77mAvi_Lv1Di29kx-60">
                    <mxGeometry width="50" height="50" relative="1" as="geometry">
                        <mxPoint x="220" y="1340" as="sourcePoint"/>
                        <mxPoint x="260" y="1420" as="targetPoint"/>
                    </mxGeometry>
                </mxCell>
                <mxCell id="kHzy77mAvi_Lv1Di29kx-66" value="" style="edgeStyle=none;html=1;strokeColor=#000000;strokeWidth=3;fontFamily=Times New Roman;fontColor=#000000;" edge="1" parent="1" source="kHzy77mAvi_Lv1Di29kx-64" target="kHzy77mAvi_Lv1Di29kx-65">
                    <mxGeometry relative="1" as="geometry"/>
                </mxCell>
                <mxCell id="kHzy77mAvi_Lv1Di29kx-64" value="free_array(*mas)" style="shape=process;whiteSpace=wrap;html=1;backgroundOutline=1;strokeColor=#000000;fontFamily=Times New Roman;fontColor=#000000;fillColor=#FFFFFF;" vertex="1" parent="1">
                    <mxGeometry x="200" y="1420" width="120" height="60" as="geometry"/>
                </mxCell>
                <mxCell id="kHzy77mAvi_Lv1Di29kx-65" value="0" style="ellipse;whiteSpace=wrap;html=1;strokeColor=#000000;fontFamily=Times New Roman;fontColor=#000000;fillColor=#FFFFFF;" vertex="1" parent="1">
                    <mxGeometry x="200" y="1510" width="120" height="80" as="geometry"/>
                </mxCell>
            </root>
        </mxGraphModel>
    </diagram>
    <diagram id="dMFKhClLKWs-CHQ6mQS2" name="show_array">
        <mxGraphModel dx="535" dy="475" grid="1" gridSize="10" guides="1" tooltips="1" connect="1" arrows="1" fold="1" page="1" pageScale="1" pageWidth="827" pageHeight="1169" background="#ffffff" math="0" shadow="0">
            <root>
                <mxCell id="0"/>
                <mxCell id="1" parent="0"/>
                <mxCell id="yfVyjGOoigmwccuPyRVm-3" value="" style="edgeStyle=none;html=1;strokeColor=#000000;strokeWidth=3;fontFamily=Times New Roman;fontColor=#000000;" edge="1" parent="1" source="yfVyjGOoigmwccuPyRVm-1" target="yfVyjGOoigmwccuPyRVm-2">
                    <mxGeometry relative="1" as="geometry"/>
                </mxCell>
                <mxCell id="yfVyjGOoigmwccuPyRVm-1" value="*array, length" style="ellipse;whiteSpace=wrap;html=1;strokeColor=#000000;fontFamily=Times New Roman;fontColor=#000000;fillColor=#FFFFFF;" vertex="1" parent="1">
                    <mxGeometry x="200" y="40" width="120" height="80" as="geometry"/>
                </mxCell>
                <mxCell id="yfVyjGOoigmwccuPyRVm-5" value="" style="edgeStyle=none;html=1;strokeColor=#000000;strokeWidth=3;fontFamily=Times New Roman;fontColor=#000000;" edge="1" parent="1" source="yfVyjGOoigmwccuPyRVm-2" target="yfVyjGOoigmwccuPyRVm-4">
                    <mxGeometry relative="1" as="geometry"/>
                </mxCell>
                <mxCell id="yfVyjGOoigmwccuPyRVm-2" value="i = 0" style="shape=process;whiteSpace=wrap;html=1;backgroundOutline=1;strokeColor=#000000;fontFamily=Times New Roman;fontColor=#000000;fillColor=#FFFFFF;" vertex="1" parent="1">
                    <mxGeometry x="200" y="140" width="120" height="60" as="geometry"/>
                </mxCell>
                <mxCell id="yfVyjGOoigmwccuPyRVm-4" value="i &amp;lt; length" style="rhombus;whiteSpace=wrap;html=1;strokeColor=#000000;fontFamily=Times New Roman;fontColor=#000000;fillColor=#FFFFFF;" vertex="1" parent="1">
                    <mxGeometry x="220" y="220" width="80" height="80" as="geometry"/>
                </mxCell>
                <mxCell id="yfVyjGOoigmwccuPyRVm-6" value="" style="endArrow=classic;html=1;strokeColor=#000000;strokeWidth=3;fontFamily=Times New Roman;fontColor=#000000;exitX=0.5;exitY=1;exitDx=0;exitDy=0;" edge="1" parent="1" source="yfVyjGOoigmwccuPyRVm-4">
                    <mxGeometry width="50" height="50" relative="1" as="geometry">
                        <mxPoint x="250" y="270" as="sourcePoint"/>
                        <mxPoint x="260" y="400" as="targetPoint"/>
                    </mxGeometry>
                </mxCell>
                <mxCell id="yfVyjGOoigmwccuPyRVm-7" value="true" style="text;html=1;align=center;verticalAlign=middle;resizable=0;points=[];autosize=1;strokeColor=none;fillColor=none;fontFamily=Times New Roman;fontColor=#000000;" vertex="1" parent="1">
                    <mxGeometry x="220" y="325" width="40" height="30" as="geometry"/>
                </mxCell>
                <mxCell id="yfVyjGOoigmwccuPyRVm-10" value="" style="edgeStyle=none;html=1;strokeColor=#000000;strokeWidth=3;fontFamily=Times New Roman;fontColor=#000000;" edge="1" parent="1" source="yfVyjGOoigmwccuPyRVm-8" target="yfVyjGOoigmwccuPyRVm-9">
                    <mxGeometry relative="1" as="geometry"/>
                </mxCell>
                <mxCell id="yfVyjGOoigmwccuPyRVm-8" value="array[i]" style="shape=parallelogram;perimeter=parallelogramPerimeter;whiteSpace=wrap;html=1;fixedSize=1;strokeColor=#000000;fontFamily=Times New Roman;fontColor=#000000;fillColor=#FFFFFF;" vertex="1" parent="1">
                    <mxGeometry x="200" y="400" width="120" height="60" as="geometry"/>
                </mxCell>
                <mxCell id="yfVyjGOoigmwccuPyRVm-9" value="i++" style="shape=process;whiteSpace=wrap;html=1;backgroundOutline=1;strokeColor=#000000;fontFamily=Times New Roman;fontColor=#000000;fillColor=#FFFFFF;" vertex="1" parent="1">
                    <mxGeometry x="200" y="490" width="120" height="60" as="geometry"/>
                </mxCell>
                <mxCell id="yfVyjGOoigmwccuPyRVm-11" value="" style="endArrow=none;html=1;strokeColor=#000000;strokeWidth=3;fontFamily=Times New Roman;fontColor=#000000;exitX=1;exitY=0.5;exitDx=0;exitDy=0;" edge="1" parent="1" source="yfVyjGOoigmwccuPyRVm-9">
                    <mxGeometry width="50" height="50" relative="1" as="geometry">
                        <mxPoint x="260" y="430" as="sourcePoint"/>
                        <mxPoint x="390" y="520" as="targetPoint"/>
                    </mxGeometry>
                </mxCell>
                <mxCell id="yfVyjGOoigmwccuPyRVm-12" value="" style="endArrow=classic;html=1;strokeColor=#000000;strokeWidth=3;fontFamily=Times New Roman;fontColor=#000000;entryX=1;entryY=0.5;entryDx=0;entryDy=0;" edge="1" parent="1" target="yfVyjGOoigmwccuPyRVm-4">
                    <mxGeometry width="50" height="50" relative="1" as="geometry">
                        <mxPoint x="390" y="260" as="sourcePoint"/>
                        <mxPoint x="310" y="380" as="targetPoint"/>
                    </mxGeometry>
                </mxCell>
                <mxCell id="yfVyjGOoigmwccuPyRVm-13" value="" style="endArrow=none;html=1;strokeColor=#000000;strokeWidth=3;fontFamily=Times New Roman;fontColor=#000000;" edge="1" parent="1">
                    <mxGeometry width="50" height="50" relative="1" as="geometry">
                        <mxPoint x="390" y="520" as="sourcePoint"/>
                        <mxPoint x="390" y="260" as="targetPoint"/>
                    </mxGeometry>
                </mxCell>
            </root>
        </mxGraphModel>
    </diagram>
    <diagram id="EbbjH7V2XTfpLVxRqcbl" name="copy_array">
        <mxGraphModel dx="535" dy="475" grid="1" gridSize="10" guides="1" tooltips="1" connect="1" arrows="1" fold="1" page="1" pageScale="1" pageWidth="827" pageHeight="1169" background="#ffffff" math="0" shadow="0">
            <root>
                <mxCell id="0"/>
                <mxCell id="1" parent="0"/>
                <mxCell id="gtxYNQI1KrwvypVrai5F-3" value="" style="edgeStyle=none;html=1;strokeColor=#000000;strokeWidth=3;fontFamily=Times New Roman;fontColor=#000000;" edge="1" parent="1" source="gtxYNQI1KrwvypVrai5F-1" target="gtxYNQI1KrwvypVrai5F-2">
                    <mxGeometry relative="1" as="geometry"/>
                </mxCell>
                <mxCell id="gtxYNQI1KrwvypVrai5F-1" value="*array_original, *array_copy, length" style="ellipse;whiteSpace=wrap;html=1;strokeColor=#000000;fontFamily=Times New Roman;fontColor=#000000;fillColor=#FFFFFF;" vertex="1" parent="1">
                    <mxGeometry x="150" y="40" width="220" height="80" as="geometry"/>
                </mxCell>
                <mxCell id="gtxYNQI1KrwvypVrai5F-5" value="" style="edgeStyle=none;html=1;strokeColor=#000000;strokeWidth=3;fontFamily=Times New Roman;fontColor=#000000;" edge="1" parent="1" source="gtxYNQI1KrwvypVrai5F-2" target="gtxYNQI1KrwvypVrai5F-4">
                    <mxGeometry relative="1" as="geometry"/>
                </mxCell>
                <mxCell id="gtxYNQI1KrwvypVrai5F-2" value="i = 0" style="shape=process;whiteSpace=wrap;html=1;backgroundOutline=1;strokeColor=#000000;fontFamily=Times New Roman;fontColor=#000000;fillColor=#FFFFFF;" vertex="1" parent="1">
                    <mxGeometry x="200" y="140" width="120" height="60" as="geometry"/>
                </mxCell>
                <mxCell id="gtxYNQI1KrwvypVrai5F-4" value="i &amp;lt; length" style="rhombus;whiteSpace=wrap;html=1;strokeColor=#000000;fontFamily=Times New Roman;fontColor=#000000;fillColor=#FFFFFF;" vertex="1" parent="1">
                    <mxGeometry x="220" y="220" width="80" height="80" as="geometry"/>
                </mxCell>
                <mxCell id="gtxYNQI1KrwvypVrai5F-6" value="" style="endArrow=classic;html=1;strokeColor=#000000;strokeWidth=3;fontFamily=Times New Roman;fontColor=#000000;exitX=0.5;exitY=1;exitDx=0;exitDy=0;" edge="1" parent="1" source="gtxYNQI1KrwvypVrai5F-4">
                    <mxGeometry width="50" height="50" relative="1" as="geometry">
                        <mxPoint x="250" y="270" as="sourcePoint"/>
                        <mxPoint x="260" y="390" as="targetPoint"/>
                    </mxGeometry>
                </mxCell>
                <mxCell id="gtxYNQI1KrwvypVrai5F-7" value="true" style="text;html=1;align=center;verticalAlign=middle;resizable=0;points=[];autosize=1;strokeColor=none;fillColor=none;fontFamily=Times New Roman;fontColor=#000000;" vertex="1" parent="1">
                    <mxGeometry x="200" y="325" width="40" height="30" as="geometry"/>
                </mxCell>
                <mxCell id="gtxYNQI1KrwvypVrai5F-10" value="" style="edgeStyle=none;html=1;strokeColor=#000000;strokeWidth=3;fontFamily=Times New Roman;fontColor=#000000;" edge="1" parent="1" source="gtxYNQI1KrwvypVrai5F-8" target="gtxYNQI1KrwvypVrai5F-9">
                    <mxGeometry relative="1" as="geometry"/>
                </mxCell>
                <mxCell id="gtxYNQI1KrwvypVrai5F-8" value="array_copy[i] = array_original[i]" style="shape=process;whiteSpace=wrap;html=1;backgroundOutline=1;strokeColor=#000000;fontFamily=Times New Roman;fontColor=#000000;fillColor=#FFFFFF;" vertex="1" parent="1">
                    <mxGeometry x="150" y="390" width="220" height="60" as="geometry"/>
                </mxCell>
                <mxCell id="gtxYNQI1KrwvypVrai5F-9" value="i++" style="shape=process;whiteSpace=wrap;html=1;backgroundOutline=1;strokeColor=#000000;fontFamily=Times New Roman;fontColor=#000000;fillColor=#FFFFFF;" vertex="1" parent="1">
                    <mxGeometry x="150" y="470" width="220" height="60" as="geometry"/>
                </mxCell>
                <mxCell id="gtxYNQI1KrwvypVrai5F-11" value="" style="endArrow=none;html=1;strokeColor=#000000;strokeWidth=3;fontFamily=Times New Roman;fontColor=#000000;exitX=1.005;exitY=0.65;exitDx=0;exitDy=0;exitPerimeter=0;" edge="1" parent="1" source="gtxYNQI1KrwvypVrai5F-9">
                    <mxGeometry width="50" height="50" relative="1" as="geometry">
                        <mxPoint x="280" y="350" as="sourcePoint"/>
                        <mxPoint x="480" y="510" as="targetPoint"/>
                    </mxGeometry>
                </mxCell>
                <mxCell id="gtxYNQI1KrwvypVrai5F-12" value="" style="endArrow=none;html=1;strokeColor=#000000;strokeWidth=3;fontFamily=Times New Roman;fontColor=#000000;" edge="1" parent="1">
                    <mxGeometry width="50" height="50" relative="1" as="geometry">
                        <mxPoint x="480" y="510" as="sourcePoint"/>
                        <mxPoint x="480" y="260" as="targetPoint"/>
                    </mxGeometry>
                </mxCell>
                <mxCell id="gtxYNQI1KrwvypVrai5F-13" value="" style="endArrow=classic;html=1;strokeColor=#000000;strokeWidth=3;fontFamily=Times New Roman;fontColor=#000000;entryX=1;entryY=0.5;entryDx=0;entryDy=0;" edge="1" parent="1" target="gtxYNQI1KrwvypVrai5F-4">
                    <mxGeometry width="50" height="50" relative="1" as="geometry">
                        <mxPoint x="480" y="260" as="sourcePoint"/>
                        <mxPoint x="330" y="300" as="targetPoint"/>
                    </mxGeometry>
                </mxCell>
            </root>
        </mxGraphModel>
    </diagram>
    <diagram id="0iTCtHawOETPF3sm03Mv" name="find_negative_elements">
        <mxGraphModel dx="832" dy="475" grid="1" gridSize="10" guides="1" tooltips="1" connect="1" arrows="1" fold="1" page="1" pageScale="1" pageWidth="827" pageHeight="1169" background="#ffffff" math="0" shadow="0">
            <root>
                <mxCell id="0"/>
                <mxCell id="1" parent="0"/>
                <mxCell id="l50_e-8MDwauOejF4LUW-3" value="" style="edgeStyle=none;html=1;strokeColor=#000000;strokeWidth=3;fontFamily=Times New Roman;fontColor=#000000;" edge="1" parent="1" source="l50_e-8MDwauOejF4LUW-1" target="l50_e-8MDwauOejF4LUW-2">
                    <mxGeometry relative="1" as="geometry"/>
                </mxCell>
                <mxCell id="l50_e-8MDwauOejF4LUW-1" value="*array, length" style="ellipse;whiteSpace=wrap;html=1;strokeColor=#000000;fontFamily=Times New Roman;fontColor=#000000;fillColor=#FFFFFF;" vertex="1" parent="1">
                    <mxGeometry x="160" y="40" width="120" height="80" as="geometry"/>
                </mxCell>
                <mxCell id="l50_e-8MDwauOejF4LUW-5" value="" style="edgeStyle=none;html=1;strokeColor=#000000;strokeWidth=3;fontFamily=Times New Roman;fontColor=#000000;" edge="1" parent="1" source="l50_e-8MDwauOejF4LUW-2" target="l50_e-8MDwauOejF4LUW-4">
                    <mxGeometry relative="1" as="geometry"/>
                </mxCell>
                <mxCell id="l50_e-8MDwauOejF4LUW-2" value="i = 0" style="shape=process;whiteSpace=wrap;html=1;backgroundOutline=1;strokeColor=#000000;fontFamily=Times New Roman;fontColor=#000000;fillColor=#FFFFFF;" vertex="1" parent="1">
                    <mxGeometry x="160" y="150" width="120" height="60" as="geometry"/>
                </mxCell>
                <mxCell id="l50_e-8MDwauOejF4LUW-4" value="i &amp;lt; length" style="rhombus;whiteSpace=wrap;html=1;strokeColor=#000000;fontFamily=Times New Roman;fontColor=#000000;fillColor=#FFFFFF;" vertex="1" parent="1">
                    <mxGeometry x="180" y="230" width="80" height="80" as="geometry"/>
                </mxCell>
                <mxCell id="l50_e-8MDwauOejF4LUW-6" value="" style="endArrow=classic;html=1;strokeColor=#000000;strokeWidth=3;fontFamily=Times New Roman;fontColor=#000000;exitX=0.5;exitY=1;exitDx=0;exitDy=0;" edge="1" parent="1" source="l50_e-8MDwauOejF4LUW-4">
                    <mxGeometry width="50" height="50" relative="1" as="geometry">
                        <mxPoint x="250" y="270" as="sourcePoint"/>
                        <mxPoint x="220" y="410" as="targetPoint"/>
                    </mxGeometry>
                </mxCell>
                <mxCell id="l50_e-8MDwauOejF4LUW-7" value="true" style="text;html=1;align=center;verticalAlign=middle;resizable=0;points=[];autosize=1;strokeColor=none;fillColor=none;fontFamily=Times New Roman;fontColor=#000000;" vertex="1" parent="1">
                    <mxGeometry x="160" y="335" width="40" height="30" as="geometry"/>
                </mxCell>
                <mxCell id="l50_e-8MDwauOejF4LUW-8" value="array[i] &amp;lt; 0" style="rhombus;whiteSpace=wrap;html=1;strokeColor=#000000;fontFamily=Times New Roman;fontColor=#000000;fillColor=#FFFFFF;" vertex="1" parent="1">
                    <mxGeometry x="180" y="410" width="80" height="80" as="geometry"/>
                </mxCell>
                <mxCell id="l50_e-8MDwauOejF4LUW-9" value="" style="endArrow=classic;html=1;strokeColor=#000000;strokeWidth=3;fontFamily=Times New Roman;fontColor=#000000;exitX=0.5;exitY=1;exitDx=0;exitDy=0;" edge="1" parent="1" source="l50_e-8MDwauOejF4LUW-8">
                    <mxGeometry width="50" height="50" relative="1" as="geometry">
                        <mxPoint x="260" y="430" as="sourcePoint"/>
                        <mxPoint x="220" y="560" as="targetPoint"/>
                    </mxGeometry>
                </mxCell>
                <mxCell id="l50_e-8MDwauOejF4LUW-10" value="i++" style="shape=process;whiteSpace=wrap;html=1;backgroundOutline=1;strokeColor=#000000;fontFamily=Times New Roman;fontColor=#000000;fillColor=#FFFFFF;" vertex="1" parent="1">
                    <mxGeometry x="160" y="560" width="120" height="60" as="geometry"/>
                </mxCell>
                <mxCell id="l50_e-8MDwauOejF4LUW-11" value="" style="endArrow=none;html=1;strokeColor=#000000;strokeWidth=3;fontFamily=Times New Roman;fontColor=#000000;exitX=1;exitY=0.5;exitDx=0;exitDy=0;" edge="1" parent="1" source="l50_e-8MDwauOejF4LUW-8">
                    <mxGeometry width="50" height="50" relative="1" as="geometry">
                        <mxPoint x="260" y="430" as="sourcePoint"/>
                        <mxPoint x="360" y="450" as="targetPoint"/>
                    </mxGeometry>
                </mxCell>
                <mxCell id="l50_e-8MDwauOejF4LUW-13" value="0" style="ellipse;whiteSpace=wrap;html=1;strokeColor=#000000;fontFamily=Times New Roman;fontColor=#000000;fillColor=#FFFFFF;" vertex="1" parent="1">
                    <mxGeometry x="300" y="520" width="120" height="80" as="geometry"/>
                </mxCell>
                <mxCell id="l50_e-8MDwauOejF4LUW-14" value="" style="endArrow=classic;html=1;strokeColor=#000000;strokeWidth=3;fontFamily=Times New Roman;fontColor=#000000;entryX=0.5;entryY=0;entryDx=0;entryDy=0;" edge="1" parent="1" target="l50_e-8MDwauOejF4LUW-13">
                    <mxGeometry width="50" height="50" relative="1" as="geometry">
                        <mxPoint x="360" y="450" as="sourcePoint"/>
                        <mxPoint x="310" y="380" as="targetPoint"/>
                    </mxGeometry>
                </mxCell>
                <mxCell id="l50_e-8MDwauOejF4LUW-15" value="true" style="text;html=1;align=center;verticalAlign=middle;resizable=0;points=[];autosize=1;strokeColor=none;fillColor=none;fontFamily=Times New Roman;fontColor=#000000;" vertex="1" parent="1">
                    <mxGeometry x="280" y="415" width="40" height="30" as="geometry"/>
                </mxCell>
                <mxCell id="l50_e-8MDwauOejF4LUW-16" value="false" style="text;html=1;align=center;verticalAlign=middle;resizable=0;points=[];autosize=1;strokeColor=none;fillColor=none;fontFamily=Times New Roman;fontColor=#000000;" vertex="1" parent="1">
                    <mxGeometry x="155" y="495" width="50" height="30" as="geometry"/>
                </mxCell>
                <mxCell id="l50_e-8MDwauOejF4LUW-17" value="" style="endArrow=none;html=1;strokeColor=#000000;strokeWidth=3;fontFamily=Times New Roman;fontColor=#000000;exitX=0.5;exitY=1;exitDx=0;exitDy=0;" edge="1" parent="1" source="l50_e-8MDwauOejF4LUW-10">
                    <mxGeometry width="50" height="50" relative="1" as="geometry">
                        <mxPoint x="270" y="510" as="sourcePoint"/>
                        <mxPoint x="220" y="660" as="targetPoint"/>
                    </mxGeometry>
                </mxCell>
                <mxCell id="l50_e-8MDwauOejF4LUW-18" value="" style="endArrow=none;html=1;strokeColor=#000000;strokeWidth=3;fontFamily=Times New Roman;fontColor=#000000;" edge="1" parent="1">
                    <mxGeometry width="50" height="50" relative="1" as="geometry">
                        <mxPoint x="220" y="660" as="sourcePoint"/>
                        <mxPoint x="460" y="660" as="targetPoint"/>
                    </mxGeometry>
                </mxCell>
                <mxCell id="l50_e-8MDwauOejF4LUW-19" value="" style="endArrow=none;html=1;strokeColor=#000000;strokeWidth=3;fontFamily=Times New Roman;fontColor=#000000;" edge="1" parent="1">
                    <mxGeometry width="50" height="50" relative="1" as="geometry">
                        <mxPoint x="460" y="660" as="sourcePoint"/>
                        <mxPoint x="460" y="270" as="targetPoint"/>
                    </mxGeometry>
                </mxCell>
                <mxCell id="l50_e-8MDwauOejF4LUW-20" value="" style="endArrow=classic;html=1;strokeColor=#000000;strokeWidth=3;fontFamily=Times New Roman;fontColor=#000000;entryX=1;entryY=0.5;entryDx=0;entryDy=0;" edge="1" parent="1" target="l50_e-8MDwauOejF4LUW-4">
                    <mxGeometry width="50" height="50" relative="1" as="geometry">
                        <mxPoint x="460" y="270" as="sourcePoint"/>
                        <mxPoint x="320" y="460" as="targetPoint"/>
                    </mxGeometry>
                </mxCell>
                <mxCell id="l50_e-8MDwauOejF4LUW-21" value="" style="endArrow=none;html=1;strokeColor=#000000;strokeWidth=3;fontFamily=Times New Roman;fontColor=#000000;entryX=0;entryY=0.5;entryDx=0;entryDy=0;" edge="1" parent="1" target="l50_e-8MDwauOejF4LUW-4">
                    <mxGeometry width="50" height="50" relative="1" as="geometry">
                        <mxPoint x="70" y="270" as="sourcePoint"/>
                        <mxPoint x="240" y="410" as="targetPoint"/>
                    </mxGeometry>
                </mxCell>
                <mxCell id="l50_e-8MDwauOejF4LUW-22" value="" style="endArrow=classic;html=1;strokeColor=#000000;strokeWidth=3;fontFamily=Times New Roman;fontColor=#000000;" edge="1" parent="1">
                    <mxGeometry width="50" height="50" relative="1" as="geometry">
                        <mxPoint x="70" y="270" as="sourcePoint"/>
                        <mxPoint x="70" y="440" as="targetPoint"/>
                    </mxGeometry>
                </mxCell>
                <mxCell id="l50_e-8MDwauOejF4LUW-23" value="1" style="ellipse;whiteSpace=wrap;html=1;strokeColor=#000000;fontFamily=Times New Roman;fontColor=#000000;fillColor=#FFFFFF;" vertex="1" parent="1">
                    <mxGeometry x="10" y="440" width="120" height="80" as="geometry"/>
                </mxCell>
                <mxCell id="l50_e-8MDwauOejF4LUW-24" value="false" style="text;html=1;align=center;verticalAlign=middle;resizable=0;points=[];autosize=1;strokeColor=none;fillColor=none;fontFamily=Times New Roman;fontColor=#000000;" vertex="1" parent="1">
                    <mxGeometry x="110" y="240" width="50" height="30" as="geometry"/>
                </mxCell>
            </root>
        </mxGraphModel>
    </diagram>
    <diagram id="XfrE_EH2WZF9e25TCCgN" name="first_negative_element">
        <mxGraphModel dx="832" dy="475" grid="1" gridSize="10" guides="1" tooltips="1" connect="1" arrows="1" fold="1" page="1" pageScale="1" pageWidth="827" pageHeight="1169" background="#ffffff" math="0" shadow="0">
            <root>
                <mxCell id="0"/>
                <mxCell id="1" parent="0"/>
                <mxCell id="ZpWGt-TDktc5E3yxsCnk-1" value="*array, length" style="ellipse;whiteSpace=wrap;html=1;strokeColor=#000000;fontFamily=Times New Roman;fontColor=#000000;fillColor=#FFFFFF;" vertex="1" parent="1">
                    <mxGeometry x="360" y="40" width="120" height="80" as="geometry"/>
                </mxCell>
                <mxCell id="ZpWGt-TDktc5E3yxsCnk-2" value="index = length" style="shape=process;whiteSpace=wrap;html=1;backgroundOutline=1;strokeColor=#000000;fontFamily=Times New Roman;fontColor=#000000;fillColor=#FFFFFF;" vertex="1" parent="1">
                    <mxGeometry x="360" y="160" width="120" height="60" as="geometry"/>
                </mxCell>
                <mxCell id="ZpWGt-TDktc5E3yxsCnk-3" value="" style="endArrow=classic;html=1;strokeColor=#000000;strokeWidth=3;fontFamily=Times New Roman;fontColor=#000000;exitX=0.5;exitY=1;exitDx=0;exitDy=0;entryX=0.5;entryY=0;entryDx=0;entryDy=0;" edge="1" parent="1" source="ZpWGt-TDktc5E3yxsCnk-1" target="ZpWGt-TDktc5E3yxsCnk-2">
                    <mxGeometry width="50" height="50" relative="1" as="geometry">
                        <mxPoint x="410" y="290" as="sourcePoint"/>
                        <mxPoint x="460" y="240" as="targetPoint"/>
                    </mxGeometry>
                </mxCell>
                <mxCell id="p3xyomQhZ_1sNCqw05zA-1" value="" style="edgeStyle=none;html=1;strokeColor=#000000;strokeWidth=3;fontFamily=Times New Roman;fontColor=#000000;" edge="1" parent="1">
                    <mxGeometry relative="1" as="geometry">
                        <mxPoint x="420" y="220" as="sourcePoint"/>
                        <mxPoint x="420" y="250" as="targetPoint"/>
                    </mxGeometry>
                </mxCell>
                <mxCell id="p3xyomQhZ_1sNCqw05zA-2" value="" style="edgeStyle=none;html=1;strokeColor=#000000;strokeWidth=3;fontFamily=Times New Roman;fontColor=#000000;" edge="1" parent="1" target="p3xyomQhZ_1sNCqw05zA-3">
                    <mxGeometry relative="1" as="geometry">
                        <mxPoint x="420" y="310" as="sourcePoint"/>
                    </mxGeometry>
                </mxCell>
                <mxCell id="p3xyomQhZ_1sNCqw05zA-3" value="i &amp;lt; length" style="rhombus;whiteSpace=wrap;html=1;strokeColor=#000000;fontFamily=Times New Roman;fontColor=#000000;fillColor=#FFFFFF;" vertex="1" parent="1">
                    <mxGeometry x="380" y="330" width="80" height="80" as="geometry"/>
                </mxCell>
                <mxCell id="p3xyomQhZ_1sNCqw05zA-4" value="" style="endArrow=classic;html=1;strokeColor=#000000;strokeWidth=3;fontFamily=Times New Roman;fontColor=#000000;exitX=0.5;exitY=1;exitDx=0;exitDy=0;" edge="1" parent="1" source="p3xyomQhZ_1sNCqw05zA-3">
                    <mxGeometry width="50" height="50" relative="1" as="geometry">
                        <mxPoint x="450" y="370" as="sourcePoint"/>
                        <mxPoint x="420" y="510" as="targetPoint"/>
                    </mxGeometry>
                </mxCell>
                <mxCell id="p3xyomQhZ_1sNCqw05zA-5" value="true" style="text;html=1;align=center;verticalAlign=middle;resizable=0;points=[];autosize=1;strokeColor=none;fillColor=none;fontFamily=Times New Roman;fontColor=#000000;" vertex="1" parent="1">
                    <mxGeometry x="360" y="435" width="40" height="30" as="geometry"/>
                </mxCell>
                <mxCell id="p3xyomQhZ_1sNCqw05zA-6" value="i = 0" style="shape=process;whiteSpace=wrap;html=1;backgroundOutline=1;strokeColor=#000000;fontFamily=Times New Roman;fontColor=#000000;fillColor=#FFFFFF;" vertex="1" parent="1">
                    <mxGeometry x="360" y="250" width="120" height="60" as="geometry"/>
                </mxCell>
                <mxCell id="p3xyomQhZ_1sNCqw05zA-7" value="array[i] &amp;lt; 0 &amp;amp;&amp;amp; index &amp;gt; i" style="rhombus;whiteSpace=wrap;html=1;strokeColor=#000000;fontFamily=Times New Roman;fontColor=#000000;fillColor=#FFFFFF;" vertex="1" parent="1">
                    <mxGeometry x="335" y="505" width="170" height="80" as="geometry"/>
                </mxCell>
                <mxCell id="p3xyomQhZ_1sNCqw05zA-8" value="" style="endArrow=none;html=1;strokeColor=#000000;strokeWidth=3;fontFamily=Times New Roman;fontColor=#000000;exitX=1;exitY=0.5;exitDx=0;exitDy=0;" edge="1" parent="1" source="p3xyomQhZ_1sNCqw05zA-7">
                    <mxGeometry width="50" height="50" relative="1" as="geometry">
                        <mxPoint x="410" y="620" as="sourcePoint"/>
                        <mxPoint x="560" y="545" as="targetPoint"/>
                    </mxGeometry>
                </mxCell>
                <mxCell id="p3xyomQhZ_1sNCqw05zA-10" value="" style="endArrow=classic;html=1;strokeColor=#000000;strokeWidth=3;fontFamily=Times New Roman;fontColor=#000000;entryX=0.5;entryY=0;entryDx=0;entryDy=0;" edge="1" parent="1" target="p3xyomQhZ_1sNCqw05zA-14">
                    <mxGeometry width="50" height="50" relative="1" as="geometry">
                        <mxPoint x="560" y="545" as="sourcePoint"/>
                        <mxPoint x="560" y="625" as="targetPoint"/>
                    </mxGeometry>
                </mxCell>
                <mxCell id="p3xyomQhZ_1sNCqw05zA-12" value="true" style="text;html=1;align=center;verticalAlign=middle;resizable=0;points=[];autosize=1;strokeColor=none;fillColor=none;fontFamily=Times New Roman;fontColor=#000000;" vertex="1" parent="1">
                    <mxGeometry x="510" y="515" width="40" height="30" as="geometry"/>
                </mxCell>
                <mxCell id="p3xyomQhZ_1sNCqw05zA-14" value="index = i" style="shape=process;whiteSpace=wrap;html=1;backgroundOutline=1;strokeColor=#000000;fontFamily=Times New Roman;fontColor=#000000;fillColor=#FFFFFF;" vertex="1" parent="1">
                    <mxGeometry x="500" y="610" width="120" height="60" as="geometry"/>
                </mxCell>
                <mxCell id="p3xyomQhZ_1sNCqw05zA-15" value="i++" style="shape=process;whiteSpace=wrap;html=1;backgroundOutline=1;strokeColor=#000000;fontFamily=Times New Roman;fontColor=#000000;fillColor=#FFFFFF;" vertex="1" parent="1">
                    <mxGeometry x="360" y="710" width="120" height="60" as="geometry"/>
                </mxCell>
                <mxCell id="p3xyomQhZ_1sNCqw05zA-16" value="" style="endArrow=classic;html=1;strokeColor=#000000;strokeWidth=3;fontFamily=Times New Roman;fontColor=#000000;exitX=0.5;exitY=1;exitDx=0;exitDy=0;entryX=0.5;entryY=0;entryDx=0;entryDy=0;" edge="1" parent="1" source="p3xyomQhZ_1sNCqw05zA-7" target="p3xyomQhZ_1sNCqw05zA-15">
                    <mxGeometry width="50" height="50" relative="1" as="geometry">
                        <mxPoint x="410" y="620" as="sourcePoint"/>
                        <mxPoint x="460" y="570" as="targetPoint"/>
                    </mxGeometry>
                </mxCell>
                <mxCell id="p3xyomQhZ_1sNCqw05zA-17" value="false" style="text;html=1;align=center;verticalAlign=middle;resizable=0;points=[];autosize=1;strokeColor=none;fillColor=none;fontFamily=Times New Roman;fontColor=#000000;" vertex="1" parent="1">
                    <mxGeometry x="355" y="615" width="50" height="30" as="geometry"/>
                </mxCell>
                <mxCell id="p3xyomQhZ_1sNCqw05zA-20" value="" style="endArrow=none;html=1;strokeColor=#000000;strokeWidth=3;fontFamily=Times New Roman;fontColor=#000000;exitX=0.5;exitY=1;exitDx=0;exitDy=0;" edge="1" parent="1" source="p3xyomQhZ_1sNCqw05zA-15">
                    <mxGeometry width="50" height="50" relative="1" as="geometry">
                        <mxPoint x="410" y="650" as="sourcePoint"/>
                        <mxPoint x="420" y="800" as="targetPoint"/>
                    </mxGeometry>
                </mxCell>
                <mxCell id="p3xyomQhZ_1sNCqw05zA-21" value="" style="endArrow=classic;html=1;strokeColor=#000000;strokeWidth=3;fontFamily=Times New Roman;fontColor=#000000;" edge="1" parent="1">
                    <mxGeometry width="50" height="50" relative="1" as="geometry">
                        <mxPoint x="560" y="690" as="sourcePoint"/>
                        <mxPoint x="420" y="690" as="targetPoint"/>
                    </mxGeometry>
                </mxCell>
                <mxCell id="p3xyomQhZ_1sNCqw05zA-22" value="" style="endArrow=none;html=1;strokeColor=#000000;strokeWidth=3;fontFamily=Times New Roman;fontColor=#000000;entryX=0.5;entryY=1;entryDx=0;entryDy=0;" edge="1" parent="1" target="p3xyomQhZ_1sNCqw05zA-14">
                    <mxGeometry width="50" height="50" relative="1" as="geometry">
                        <mxPoint x="560" y="690" as="sourcePoint"/>
                        <mxPoint x="460" y="600" as="targetPoint"/>
                    </mxGeometry>
                </mxCell>
                <mxCell id="p3xyomQhZ_1sNCqw05zA-23" value="" style="endArrow=none;html=1;strokeColor=#000000;strokeWidth=3;fontFamily=Times New Roman;fontColor=#000000;" edge="1" parent="1">
                    <mxGeometry width="50" height="50" relative="1" as="geometry">
                        <mxPoint x="420" y="800" as="sourcePoint"/>
                        <mxPoint x="650" y="800" as="targetPoint"/>
                    </mxGeometry>
                </mxCell>
                <mxCell id="p3xyomQhZ_1sNCqw05zA-24" value="" style="endArrow=none;html=1;strokeColor=#000000;strokeWidth=3;fontFamily=Times New Roman;fontColor=#000000;" edge="1" parent="1">
                    <mxGeometry width="50" height="50" relative="1" as="geometry">
                        <mxPoint x="650" y="800" as="sourcePoint"/>
                        <mxPoint x="650" y="370" as="targetPoint"/>
                    </mxGeometry>
                </mxCell>
                <mxCell id="p3xyomQhZ_1sNCqw05zA-25" value="" style="endArrow=classic;html=1;strokeColor=#000000;strokeWidth=3;fontFamily=Times New Roman;fontColor=#000000;entryX=1;entryY=0.5;entryDx=0;entryDy=0;" edge="1" parent="1" target="p3xyomQhZ_1sNCqw05zA-3">
                    <mxGeometry width="50" height="50" relative="1" as="geometry">
                        <mxPoint x="650" y="370" as="sourcePoint"/>
                        <mxPoint x="520" y="350" as="targetPoint"/>
                    </mxGeometry>
                </mxCell>
                <mxCell id="p3xyomQhZ_1sNCqw05zA-26" value="" style="endArrow=none;html=1;strokeColor=#000000;strokeWidth=3;fontFamily=Times New Roman;fontColor=#000000;entryX=0;entryY=0.5;entryDx=0;entryDy=0;" edge="1" parent="1" target="p3xyomQhZ_1sNCqw05zA-3">
                    <mxGeometry width="50" height="50" relative="1" as="geometry">
                        <mxPoint x="280" y="370" as="sourcePoint"/>
                        <mxPoint x="460" y="440" as="targetPoint"/>
                    </mxGeometry>
                </mxCell>
                <mxCell id="p3xyomQhZ_1sNCqw05zA-27" value="false" style="text;html=1;align=center;verticalAlign=middle;resizable=0;points=[];autosize=1;strokeColor=none;fillColor=none;fontFamily=Times New Roman;fontColor=#000000;" vertex="1" parent="1">
                    <mxGeometry x="295" y="335" width="50" height="30" as="geometry"/>
                </mxCell>
                <mxCell id="p3xyomQhZ_1sNCqw05zA-28" value="" style="endArrow=classic;html=1;strokeColor=#000000;strokeWidth=3;fontFamily=Times New Roman;fontColor=#000000;" edge="1" parent="1">
                    <mxGeometry width="50" height="50" relative="1" as="geometry">
                        <mxPoint x="280" y="370" as="sourcePoint"/>
                        <mxPoint x="280" y="460" as="targetPoint"/>
                    </mxGeometry>
                </mxCell>
                <mxCell id="p3xyomQhZ_1sNCqw05zA-29" value="index" style="ellipse;whiteSpace=wrap;html=1;strokeColor=#000000;fontFamily=Times New Roman;fontColor=#000000;fillColor=#FFFFFF;" vertex="1" parent="1">
                    <mxGeometry x="220" y="460" width="115" height="80" as="geometry"/>
                </mxCell>
            </root>
        </mxGraphModel>
    </diagram>
    <diagram id="4plaV4JbKkXiLm5k1ens" name="find_abs_min">
        <mxGraphModel dx="832" dy="475" grid="1" gridSize="10" guides="1" tooltips="1" connect="1" arrows="1" fold="1" page="1" pageScale="1" pageWidth="827" pageHeight="1169" background="#ffffff" math="0" shadow="0">
            <root>
                <mxCell id="0"/>
                <mxCell id="1" parent="0"/>
                <mxCell id="Jf_y2oL7M4UOEzo3PGIQ-1" value="*array, length" style="ellipse;whiteSpace=wrap;html=1;strokeColor=#000000;fontFamily=Times New Roman;fontColor=#000000;fillColor=#FFFFFF;" vertex="1" parent="1">
                    <mxGeometry x="360" y="40" width="120" height="80" as="geometry"/>
                </mxCell>
                <mxCell id="Jf_y2oL7M4UOEzo3PGIQ-2" value="index = first_negative_element(*array, length)" style="shape=process;whiteSpace=wrap;html=1;backgroundOutline=1;strokeColor=#000000;fontFamily=Times New Roman;fontColor=#000000;fillColor=#FFFFFF;" vertex="1" parent="1">
                    <mxGeometry x="270" y="160" width="300" height="60" as="geometry"/>
                </mxCell>
                <mxCell id="Jf_y2oL7M4UOEzo3PGIQ-3" value="" style="endArrow=classic;html=1;strokeColor=#000000;strokeWidth=3;fontFamily=Times New Roman;fontColor=#000000;exitX=0.5;exitY=1;exitDx=0;exitDy=0;entryX=0.5;entryY=0;entryDx=0;entryDy=0;" edge="1" parent="1" source="Jf_y2oL7M4UOEzo3PGIQ-1" target="Jf_y2oL7M4UOEzo3PGIQ-2">
                    <mxGeometry width="50" height="50" relative="1" as="geometry">
                        <mxPoint x="410" y="290" as="sourcePoint"/>
                        <mxPoint x="460" y="240" as="targetPoint"/>
                    </mxGeometry>
                </mxCell>
                <mxCell id="Jf_y2oL7M4UOEzo3PGIQ-4" value="" style="edgeStyle=none;html=1;strokeColor=#000000;strokeWidth=3;fontFamily=Times New Roman;fontColor=#000000;" edge="1" parent="1">
                    <mxGeometry relative="1" as="geometry">
                        <mxPoint x="420" y="220" as="sourcePoint"/>
                        <mxPoint x="420" y="250" as="targetPoint"/>
                    </mxGeometry>
                </mxCell>
                <mxCell id="Jf_y2oL7M4UOEzo3PGIQ-5" value="" style="edgeStyle=none;html=1;strokeColor=#000000;strokeWidth=3;fontFamily=Times New Roman;fontColor=#000000;" edge="1" parent="1" target="Jf_y2oL7M4UOEzo3PGIQ-6">
                    <mxGeometry relative="1" as="geometry">
                        <mxPoint x="420" y="310" as="sourcePoint"/>
                    </mxGeometry>
                </mxCell>
                <mxCell id="Jf_y2oL7M4UOEzo3PGIQ-6" value="i &amp;lt; length" style="rhombus;whiteSpace=wrap;html=1;strokeColor=#000000;fontFamily=Times New Roman;fontColor=#000000;fillColor=#FFFFFF;" vertex="1" parent="1">
                    <mxGeometry x="380" y="330" width="80" height="80" as="geometry"/>
                </mxCell>
                <mxCell id="Jf_y2oL7M4UOEzo3PGIQ-7" value="" style="endArrow=classic;html=1;strokeColor=#000000;strokeWidth=3;fontFamily=Times New Roman;fontColor=#000000;exitX=0.5;exitY=1;exitDx=0;exitDy=0;" edge="1" parent="1" source="Jf_y2oL7M4UOEzo3PGIQ-6">
                    <mxGeometry width="50" height="50" relative="1" as="geometry">
                        <mxPoint x="450" y="370" as="sourcePoint"/>
                        <mxPoint x="420" y="510" as="targetPoint"/>
                    </mxGeometry>
                </mxCell>
                <mxCell id="Jf_y2oL7M4UOEzo3PGIQ-8" value="true" style="text;html=1;align=center;verticalAlign=middle;resizable=0;points=[];autosize=1;strokeColor=none;fillColor=none;fontFamily=Times New Roman;fontColor=#000000;" vertex="1" parent="1">
                    <mxGeometry x="360" y="435" width="40" height="30" as="geometry"/>
                </mxCell>
                <mxCell id="Jf_y2oL7M4UOEzo3PGIQ-9" value="i = 0" style="shape=process;whiteSpace=wrap;html=1;backgroundOutline=1;strokeColor=#000000;fontFamily=Times New Roman;fontColor=#000000;fillColor=#FFFFFF;" vertex="1" parent="1">
                    <mxGeometry x="360" y="250" width="120" height="60" as="geometry"/>
                </mxCell>
                <mxCell id="Jf_y2oL7M4UOEzo3PGIQ-12" value="" style="edgeStyle=none;html=1;strokeColor=#000000;strokeWidth=3;fontFamily=Times New Roman;fontColor=#000000;" edge="1" parent="1" source="Jf_y2oL7M4UOEzo3PGIQ-10" target="Jf_y2oL7M4UOEzo3PGIQ-11">
                    <mxGeometry relative="1" as="geometry"/>
                </mxCell>
                <mxCell id="Jf_y2oL7M4UOEzo3PGIQ-10" value="array[i] &amp;lt; 0" style="rhombus;whiteSpace=wrap;html=1;strokeColor=#000000;fontFamily=Times New Roman;fontColor=#000000;fillColor=#FFFFFF;" vertex="1" parent="1">
                    <mxGeometry x="380" y="510" width="80" height="80" as="geometry"/>
                </mxCell>
                <mxCell id="Jf_y2oL7M4UOEzo3PGIQ-11" value="abs(array[index]) &amp;gt; abs(array[i]" style="rhombus;whiteSpace=wrap;html=1;strokeColor=#000000;fontFamily=Times New Roman;fontColor=#000000;fillColor=#FFFFFF;" vertex="1" parent="1">
                    <mxGeometry x="325" y="640" width="190" height="80" as="geometry"/>
                </mxCell>
                <mxCell id="Jf_y2oL7M4UOEzo3PGIQ-13" value="true" style="text;html=1;align=center;verticalAlign=middle;resizable=0;points=[];autosize=1;strokeColor=none;fillColor=none;fontFamily=Times New Roman;fontColor=#000000;" vertex="1" parent="1">
                    <mxGeometry x="370" y="595" width="40" height="30" as="geometry"/>
                </mxCell>
                <mxCell id="Jf_y2oL7M4UOEzo3PGIQ-14" value="" style="endArrow=classic;html=1;strokeColor=#000000;strokeWidth=3;fontFamily=Times New Roman;fontColor=#000000;exitX=0.5;exitY=1;exitDx=0;exitDy=0;" edge="1" parent="1" source="Jf_y2oL7M4UOEzo3PGIQ-11">
                    <mxGeometry width="50" height="50" relative="1" as="geometry">
                        <mxPoint x="440" y="650" as="sourcePoint"/>
                        <mxPoint x="420" y="760" as="targetPoint"/>
                    </mxGeometry>
                </mxCell>
                <mxCell id="Jf_y2oL7M4UOEzo3PGIQ-15" value="index = i" style="shape=process;whiteSpace=wrap;html=1;backgroundOutline=1;strokeColor=#000000;fontFamily=Times New Roman;fontColor=#000000;fillColor=#FFFFFF;" vertex="1" parent="1">
                    <mxGeometry x="360" y="760" width="120" height="60" as="geometry"/>
                </mxCell>
                <mxCell id="Jf_y2oL7M4UOEzo3PGIQ-16" value="true" style="text;html=1;align=center;verticalAlign=middle;resizable=0;points=[];autosize=1;strokeColor=none;fillColor=none;fontFamily=Times New Roman;fontColor=#000000;" vertex="1" parent="1">
                    <mxGeometry x="370" y="720" width="40" height="30" as="geometry"/>
                </mxCell>
                <mxCell id="Jf_y2oL7M4UOEzo3PGIQ-17" value="" style="endArrow=none;html=1;strokeColor=#000000;strokeWidth=3;fontFamily=Times New Roman;fontColor=#000000;entryX=0;entryY=0.5;entryDx=0;entryDy=0;" edge="1" parent="1" target="Jf_y2oL7M4UOEzo3PGIQ-10">
                    <mxGeometry width="50" height="50" relative="1" as="geometry">
                        <mxPoint x="270" y="550" as="sourcePoint"/>
                        <mxPoint x="410" y="560" as="targetPoint"/>
                    </mxGeometry>
                </mxCell>
                <mxCell id="Jf_y2oL7M4UOEzo3PGIQ-18" value="" style="endArrow=none;html=1;strokeColor=#000000;strokeWidth=3;fontFamily=Times New Roman;fontColor=#000000;entryX=0;entryY=0.5;entryDx=0;entryDy=0;" edge="1" parent="1" target="Jf_y2oL7M4UOEzo3PGIQ-11">
                    <mxGeometry width="50" height="50" relative="1" as="geometry">
                        <mxPoint x="270" y="680" as="sourcePoint"/>
                        <mxPoint x="410" y="560" as="targetPoint"/>
                    </mxGeometry>
                </mxCell>
                <mxCell id="Jf_y2oL7M4UOEzo3PGIQ-19" value="" style="endArrow=none;html=1;strokeColor=#000000;strokeWidth=3;fontFamily=Times New Roman;fontColor=#000000;" edge="1" parent="1">
                    <mxGeometry width="50" height="50" relative="1" as="geometry">
                        <mxPoint x="270" y="850" as="sourcePoint"/>
                        <mxPoint x="270" y="550" as="targetPoint"/>
                    </mxGeometry>
                </mxCell>
                <mxCell id="Jf_y2oL7M4UOEzo3PGIQ-20" value="" style="endArrow=classic;html=1;strokeColor=#000000;strokeWidth=3;fontFamily=Times New Roman;fontColor=#000000;exitX=0.5;exitY=1;exitDx=0;exitDy=0;" edge="1" parent="1" source="Jf_y2oL7M4UOEzo3PGIQ-15">
                    <mxGeometry width="50" height="50" relative="1" as="geometry">
                        <mxPoint x="370" y="740" as="sourcePoint"/>
                        <mxPoint x="420" y="890" as="targetPoint"/>
                    </mxGeometry>
                </mxCell>
                <mxCell id="Jf_y2oL7M4UOEzo3PGIQ-22" value="" style="endArrow=classic;html=1;strokeColor=#000000;strokeWidth=3;fontFamily=Times New Roman;fontColor=#000000;" edge="1" parent="1">
                    <mxGeometry width="50" height="50" relative="1" as="geometry">
                        <mxPoint x="270" y="850" as="sourcePoint"/>
                        <mxPoint x="420" y="850" as="targetPoint"/>
                    </mxGeometry>
                </mxCell>
                <mxCell id="Jf_y2oL7M4UOEzo3PGIQ-23" value="false" style="text;html=1;align=center;verticalAlign=middle;resizable=0;points=[];autosize=1;strokeColor=none;fillColor=none;fontFamily=Times New Roman;fontColor=#000000;" vertex="1" parent="1">
                    <mxGeometry x="305" y="515" width="50" height="30" as="geometry"/>
                </mxCell>
                <mxCell id="Jf_y2oL7M4UOEzo3PGIQ-24" value="false" style="text;html=1;align=center;verticalAlign=middle;resizable=0;points=[];autosize=1;strokeColor=none;fillColor=none;fontFamily=Times New Roman;fontColor=#000000;" vertex="1" parent="1">
                    <mxGeometry x="275" y="655" width="50" height="30" as="geometry"/>
                </mxCell>
                <mxCell id="Jf_y2oL7M4UOEzo3PGIQ-25" value="i++" style="shape=process;whiteSpace=wrap;html=1;backgroundOutline=1;strokeColor=#000000;fontFamily=Times New Roman;fontColor=#000000;fillColor=#FFFFFF;" vertex="1" parent="1">
                    <mxGeometry x="360" y="890" width="120" height="60" as="geometry"/>
                </mxCell>
                <mxCell id="Jf_y2oL7M4UOEzo3PGIQ-26" value="" style="endArrow=none;html=1;strokeColor=#000000;strokeWidth=3;fontFamily=Times New Roman;fontColor=#000000;entryX=0.5;entryY=1;entryDx=0;entryDy=0;" edge="1" parent="1" target="Jf_y2oL7M4UOEzo3PGIQ-25">
                    <mxGeometry width="50" height="50" relative="1" as="geometry">
                        <mxPoint x="420" y="980" as="sourcePoint"/>
                        <mxPoint x="460" y="800" as="targetPoint"/>
                    </mxGeometry>
                </mxCell>
                <mxCell id="Jf_y2oL7M4UOEzo3PGIQ-28" value="" style="endArrow=none;html=1;strokeColor=#000000;strokeWidth=3;fontFamily=Times New Roman;fontColor=#000000;" edge="1" parent="1">
                    <mxGeometry width="50" height="50" relative="1" as="geometry">
                        <mxPoint x="420" y="980" as="sourcePoint"/>
                        <mxPoint x="600" y="980" as="targetPoint"/>
                    </mxGeometry>
                </mxCell>
                <mxCell id="Jf_y2oL7M4UOEzo3PGIQ-29" value="" style="endArrow=none;html=1;strokeColor=#000000;strokeWidth=3;fontFamily=Times New Roman;fontColor=#000000;" edge="1" parent="1">
                    <mxGeometry width="50" height="50" relative="1" as="geometry">
                        <mxPoint x="600" y="980" as="sourcePoint"/>
                        <mxPoint x="600" y="370" as="targetPoint"/>
                    </mxGeometry>
                </mxCell>
                <mxCell id="Jf_y2oL7M4UOEzo3PGIQ-30" value="" style="endArrow=classic;html=1;strokeColor=#000000;strokeWidth=3;fontFamily=Times New Roman;fontColor=#000000;entryX=1;entryY=0.5;entryDx=0;entryDy=0;" edge="1" parent="1" target="Jf_y2oL7M4UOEzo3PGIQ-6">
                    <mxGeometry width="50" height="50" relative="1" as="geometry">
                        <mxPoint x="600" y="370" as="sourcePoint"/>
                        <mxPoint x="550" y="380" as="targetPoint"/>
                    </mxGeometry>
                </mxCell>
                <mxCell id="Jf_y2oL7M4UOEzo3PGIQ-31" value="" style="endArrow=none;html=1;strokeColor=#000000;strokeWidth=3;fontFamily=Times New Roman;fontColor=#000000;entryX=0;entryY=0.5;entryDx=0;entryDy=0;" edge="1" parent="1" target="Jf_y2oL7M4UOEzo3PGIQ-6">
                    <mxGeometry width="50" height="50" relative="1" as="geometry">
                        <mxPoint x="190" y="370" as="sourcePoint"/>
                        <mxPoint x="410" y="360" as="targetPoint"/>
                    </mxGeometry>
                </mxCell>
                <mxCell id="Jf_y2oL7M4UOEzo3PGIQ-32" value="false" style="text;html=1;align=center;verticalAlign=middle;resizable=0;points=[];autosize=1;strokeColor=none;fillColor=none;fontFamily=Times New Roman;fontColor=#000000;" vertex="1" parent="1">
                    <mxGeometry x="265" y="335" width="50" height="30" as="geometry"/>
                </mxCell>
                <mxCell id="Jf_y2oL7M4UOEzo3PGIQ-33" value="" style="endArrow=classic;html=1;strokeColor=#000000;strokeWidth=3;fontFamily=Times New Roman;fontColor=#000000;" edge="1" parent="1">
                    <mxGeometry width="50" height="50" relative="1" as="geometry">
                        <mxPoint x="190" y="370" as="sourcePoint"/>
                        <mxPoint x="190" y="470" as="targetPoint"/>
                    </mxGeometry>
                </mxCell>
                <mxCell id="Jf_y2oL7M4UOEzo3PGIQ-34" value="index" style="ellipse;whiteSpace=wrap;html=1;strokeColor=#000000;fontFamily=Times New Roman;fontColor=#000000;fillColor=#FFFFFF;" vertex="1" parent="1">
                    <mxGeometry x="130" y="470" width="120" height="80" as="geometry"/>
                </mxCell>
            </root>
        </mxGraphModel>
    </diagram>
    <diagram id="7b_SgcNwLyIKyqk7TesT" name="new_index">
        <mxGraphModel dx="832" dy="475" grid="1" gridSize="10" guides="1" tooltips="1" connect="1" arrows="1" fold="1" page="1" pageScale="1" pageWidth="827" pageHeight="1169" background="#ffffff" math="0" shadow="0">
            <root>
                <mxCell id="0"/>
                <mxCell id="1" parent="0"/>
                <mxCell id="Lj9FuSWxXhB90jRCNxWG-1" value="*array, length" style="ellipse;whiteSpace=wrap;html=1;strokeColor=#000000;fontFamily=Times New Roman;fontColor=#000000;fillColor=#FFFFFF;" vertex="1" parent="1">
                    <mxGeometry x="360" y="40" width="120" height="80" as="geometry"/>
                </mxCell>
                <mxCell id="Lj9FuSWxXhB90jRCNxWG-2" value="new_index = 0" style="shape=process;whiteSpace=wrap;html=1;backgroundOutline=1;strokeColor=#000000;fontFamily=Times New Roman;fontColor=#000000;fillColor=#FFFFFF;" vertex="1" parent="1">
                    <mxGeometry x="360" y="160" width="120" height="60" as="geometry"/>
                </mxCell>
                <mxCell id="Lj9FuSWxXhB90jRCNxWG-3" value="" style="endArrow=classic;html=1;strokeColor=#000000;strokeWidth=3;fontFamily=Times New Roman;fontColor=#000000;exitX=0.5;exitY=1;exitDx=0;exitDy=0;entryX=0.5;entryY=0;entryDx=0;entryDy=0;" edge="1" parent="1" source="Lj9FuSWxXhB90jRCNxWG-1" target="Lj9FuSWxXhB90jRCNxWG-2">
                    <mxGeometry width="50" height="50" relative="1" as="geometry">
                        <mxPoint x="410" y="290" as="sourcePoint"/>
                        <mxPoint x="460" y="240" as="targetPoint"/>
                    </mxGeometry>
                </mxCell>
                <mxCell id="Lj9FuSWxXhB90jRCNxWG-4" value="" style="edgeStyle=none;html=1;strokeColor=#000000;strokeWidth=3;fontFamily=Times New Roman;fontColor=#000000;" edge="1" parent="1">
                    <mxGeometry relative="1" as="geometry">
                        <mxPoint x="420" y="220" as="sourcePoint"/>
                        <mxPoint x="420" y="250" as="targetPoint"/>
                    </mxGeometry>
                </mxCell>
                <mxCell id="Lj9FuSWxXhB90jRCNxWG-5" value="" style="edgeStyle=none;html=1;strokeColor=#000000;strokeWidth=3;fontFamily=Times New Roman;fontColor=#000000;" edge="1" parent="1" target="Lj9FuSWxXhB90jRCNxWG-6">
                    <mxGeometry relative="1" as="geometry">
                        <mxPoint x="420" y="310" as="sourcePoint"/>
                    </mxGeometry>
                </mxCell>
                <mxCell id="Lj9FuSWxXhB90jRCNxWG-6" value="i &amp;lt; length" style="rhombus;whiteSpace=wrap;html=1;strokeColor=#000000;fontFamily=Times New Roman;fontColor=#000000;fillColor=#FFFFFF;" vertex="1" parent="1">
                    <mxGeometry x="380" y="330" width="80" height="80" as="geometry"/>
                </mxCell>
                <mxCell id="Lj9FuSWxXhB90jRCNxWG-7" value="" style="endArrow=classic;html=1;strokeColor=#000000;strokeWidth=3;fontFamily=Times New Roman;fontColor=#000000;exitX=0.5;exitY=1;exitDx=0;exitDy=0;" edge="1" parent="1" source="Lj9FuSWxXhB90jRCNxWG-6">
                    <mxGeometry width="50" height="50" relative="1" as="geometry">
                        <mxPoint x="450" y="370" as="sourcePoint"/>
                        <mxPoint x="420" y="510" as="targetPoint"/>
                    </mxGeometry>
                </mxCell>
                <mxCell id="Lj9FuSWxXhB90jRCNxWG-8" value="i = 0" style="shape=process;whiteSpace=wrap;html=1;backgroundOutline=1;strokeColor=#000000;fontFamily=Times New Roman;fontColor=#000000;fillColor=#FFFFFF;" vertex="1" parent="1">
                    <mxGeometry x="360" y="250" width="120" height="60" as="geometry"/>
                </mxCell>
                <mxCell id="Lj9FuSWxXhB90jRCNxWG-9" value="true" style="text;html=1;align=center;verticalAlign=middle;resizable=0;points=[];autosize=1;strokeColor=none;fillColor=none;fontFamily=Times New Roman;fontColor=#000000;" vertex="1" parent="1">
                    <mxGeometry x="360" y="440" width="40" height="30" as="geometry"/>
                </mxCell>
                <mxCell id="Lj9FuSWxXhB90jRCNxWG-10" value="array[i] % 10 != 0" style="rhombus;whiteSpace=wrap;html=1;strokeColor=#000000;fontFamily=Times New Roman;fontColor=#000000;fillColor=#FFFFFF;" vertex="1" parent="1">
                    <mxGeometry x="360" y="510" width="120" height="80" as="geometry"/>
                </mxCell>
                <mxCell id="Lj9FuSWxXhB90jRCNxWG-11" value="" style="endArrow=classic;html=1;strokeColor=#000000;strokeWidth=3;fontFamily=Times New Roman;fontColor=#000000;exitX=0.5;exitY=1;exitDx=0;exitDy=0;" edge="1" parent="1" source="Lj9FuSWxXhB90jRCNxWG-10">
                    <mxGeometry width="50" height="50" relative="1" as="geometry">
                        <mxPoint x="370" y="530" as="sourcePoint"/>
                        <mxPoint x="420" y="640" as="targetPoint"/>
                    </mxGeometry>
                </mxCell>
                <mxCell id="Lj9FuSWxXhB90jRCNxWG-12" value="new_index++" style="shape=process;whiteSpace=wrap;html=1;backgroundOutline=1;strokeColor=#000000;fontFamily=Times New Roman;fontColor=#000000;fillColor=#FFFFFF;" vertex="1" parent="1">
                    <mxGeometry x="360" y="640" width="120" height="60" as="geometry"/>
                </mxCell>
                <mxCell id="Lj9FuSWxXhB90jRCNxWG-13" value="true" style="text;html=1;align=center;verticalAlign=middle;resizable=0;points=[];autosize=1;strokeColor=none;fillColor=none;fontFamily=Times New Roman;fontColor=#000000;" vertex="1" parent="1">
                    <mxGeometry x="360" y="600" width="40" height="30" as="geometry"/>
                </mxCell>
                <mxCell id="Lj9FuSWxXhB90jRCNxWG-14" value="" style="endArrow=none;html=1;strokeColor=#000000;strokeWidth=3;fontFamily=Times New Roman;fontColor=#000000;exitX=0;exitY=0.5;exitDx=0;exitDy=0;" edge="1" parent="1" source="Lj9FuSWxXhB90jRCNxWG-10">
                    <mxGeometry width="50" height="50" relative="1" as="geometry">
                        <mxPoint x="370" y="530" as="sourcePoint"/>
                        <mxPoint x="300" y="550" as="targetPoint"/>
                    </mxGeometry>
                </mxCell>
                <mxCell id="Lj9FuSWxXhB90jRCNxWG-15" value="" style="endArrow=none;html=1;strokeColor=#000000;strokeWidth=3;fontFamily=Times New Roman;fontColor=#000000;" edge="1" parent="1">
                    <mxGeometry width="50" height="50" relative="1" as="geometry">
                        <mxPoint x="300" y="550" as="sourcePoint"/>
                        <mxPoint x="300" y="720" as="targetPoint"/>
                    </mxGeometry>
                </mxCell>
                <mxCell id="Lj9FuSWxXhB90jRCNxWG-16" value="" style="endArrow=classic;html=1;strokeColor=#000000;strokeWidth=3;fontFamily=Times New Roman;fontColor=#000000;exitX=0.5;exitY=1;exitDx=0;exitDy=0;" edge="1" parent="1" source="Lj9FuSWxXhB90jRCNxWG-12">
                    <mxGeometry width="50" height="50" relative="1" as="geometry">
                        <mxPoint x="390" y="670" as="sourcePoint"/>
                        <mxPoint x="420" y="760" as="targetPoint"/>
                    </mxGeometry>
                </mxCell>
                <mxCell id="Lj9FuSWxXhB90jRCNxWG-17" value="" style="endArrow=classic;html=1;strokeColor=#000000;strokeWidth=3;fontFamily=Times New Roman;fontColor=#000000;" edge="1" parent="1">
                    <mxGeometry width="50" height="50" relative="1" as="geometry">
                        <mxPoint x="300" y="720" as="sourcePoint"/>
                        <mxPoint x="420" y="720" as="targetPoint"/>
                    </mxGeometry>
                </mxCell>
                <mxCell id="Lj9FuSWxXhB90jRCNxWG-18" value="false" style="text;html=1;align=center;verticalAlign=middle;resizable=0;points=[];autosize=1;strokeColor=none;fillColor=none;fontFamily=Times New Roman;fontColor=#000000;" vertex="1" parent="1">
                    <mxGeometry x="310" y="520" width="50" height="30" as="geometry"/>
                </mxCell>
                <mxCell id="Lj9FuSWxXhB90jRCNxWG-19" value="i++" style="shape=process;whiteSpace=wrap;html=1;backgroundOutline=1;strokeColor=#000000;fontFamily=Times New Roman;fontColor=#000000;fillColor=#FFFFFF;" vertex="1" parent="1">
                    <mxGeometry x="360" y="760" width="120" height="60" as="geometry"/>
                </mxCell>
                <mxCell id="Lj9FuSWxXhB90jRCNxWG-20" value="" style="endArrow=none;html=1;strokeColor=#000000;strokeWidth=3;fontFamily=Times New Roman;fontColor=#000000;exitX=0.5;exitY=1;exitDx=0;exitDy=0;" edge="1" parent="1" source="Lj9FuSWxXhB90jRCNxWG-19">
                    <mxGeometry width="50" height="50" relative="1" as="geometry">
                        <mxPoint x="390" y="670" as="sourcePoint"/>
                        <mxPoint x="420" y="850" as="targetPoint"/>
                    </mxGeometry>
                </mxCell>
                <mxCell id="Lj9FuSWxXhB90jRCNxWG-21" value="" style="endArrow=none;html=1;strokeColor=#000000;strokeWidth=3;fontFamily=Times New Roman;fontColor=#000000;" edge="1" parent="1">
                    <mxGeometry width="50" height="50" relative="1" as="geometry">
                        <mxPoint x="420" y="850" as="sourcePoint"/>
                        <mxPoint x="570" y="850" as="targetPoint"/>
                    </mxGeometry>
                </mxCell>
                <mxCell id="Lj9FuSWxXhB90jRCNxWG-22" value="" style="endArrow=none;html=1;strokeColor=#000000;strokeWidth=3;fontFamily=Times New Roman;fontColor=#000000;" edge="1" parent="1">
                    <mxGeometry width="50" height="50" relative="1" as="geometry">
                        <mxPoint x="570" y="850" as="sourcePoint"/>
                        <mxPoint x="570" y="370" as="targetPoint"/>
                    </mxGeometry>
                </mxCell>
                <mxCell id="Lj9FuSWxXhB90jRCNxWG-23" value="" style="endArrow=classic;html=1;strokeColor=#000000;strokeWidth=3;fontFamily=Times New Roman;fontColor=#000000;entryX=1;entryY=0.5;entryDx=0;entryDy=0;" edge="1" parent="1" target="Lj9FuSWxXhB90jRCNxWG-6">
                    <mxGeometry width="50" height="50" relative="1" as="geometry">
                        <mxPoint x="570" y="370" as="sourcePoint"/>
                        <mxPoint x="440" y="380" as="targetPoint"/>
                    </mxGeometry>
                </mxCell>
                <mxCell id="Lj9FuSWxXhB90jRCNxWG-24" value="" style="endArrow=none;html=1;strokeColor=#000000;strokeWidth=3;fontFamily=Times New Roman;fontColor=#000000;entryX=0;entryY=0.5;entryDx=0;entryDy=0;" edge="1" parent="1" target="Lj9FuSWxXhB90jRCNxWG-6">
                    <mxGeometry width="50" height="50" relative="1" as="geometry">
                        <mxPoint x="220" y="370" as="sourcePoint"/>
                        <mxPoint x="370" y="470" as="targetPoint"/>
                    </mxGeometry>
                </mxCell>
                <mxCell id="Lj9FuSWxXhB90jRCNxWG-25" value="false" style="text;html=1;align=center;verticalAlign=middle;resizable=0;points=[];autosize=1;strokeColor=none;fillColor=none;fontFamily=Times New Roman;fontColor=#000000;" vertex="1" parent="1">
                    <mxGeometry x="240" y="330" width="50" height="30" as="geometry"/>
                </mxCell>
                <mxCell id="Lj9FuSWxXhB90jRCNxWG-27" value="" style="endArrow=classic;html=1;strokeColor=#000000;strokeWidth=3;fontFamily=Times New Roman;fontColor=#000000;" edge="1" parent="1">
                    <mxGeometry width="50" height="50" relative="1" as="geometry">
                        <mxPoint x="220" y="370" as="sourcePoint"/>
                        <mxPoint x="220" y="480" as="targetPoint"/>
                    </mxGeometry>
                </mxCell>
                <mxCell id="Lj9FuSWxXhB90jRCNxWG-29" value="new_index" style="ellipse;whiteSpace=wrap;html=1;strokeColor=#000000;fontFamily=Times New Roman;fontColor=#000000;fillColor=#FFFFFF;" vertex="1" parent="1">
                    <mxGeometry x="160" y="480" width="120" height="80" as="geometry"/>
                </mxCell>
            </root>
        </mxGraphModel>
    </diagram>
    <diagram id="YilxOHg9H9Axu6zYeR1p" name="is_even">
        <mxGraphModel dx="832" dy="475" grid="1" gridSize="10" guides="1" tooltips="1" connect="1" arrows="1" fold="1" page="1" pageScale="1" pageWidth="827" pageHeight="1169" background="#ffffff" math="0" shadow="0">
            <root>
                <mxCell id="0"/>
                <mxCell id="1" parent="0"/>
                <mxCell id="LoB43LimliEFj7zW9_Q7-3" value="" style="edgeStyle=none;html=1;strokeColor=#000000;strokeWidth=3;fontFamily=Times New Roman;fontColor=#000000;" edge="1" parent="1" source="LoB43LimliEFj7zW9_Q7-1" target="LoB43LimliEFj7zW9_Q7-2">
                    <mxGeometry relative="1" as="geometry"/>
                </mxCell>
                <mxCell id="LoB43LimliEFj7zW9_Q7-1" value="number" style="ellipse;whiteSpace=wrap;html=1;strokeColor=#000000;fontFamily=Times New Roman;fontColor=#000000;fillColor=#FFFFFF;" vertex="1" parent="1">
                    <mxGeometry x="360" y="40" width="120" height="80" as="geometry"/>
                </mxCell>
                <mxCell id="LoB43LimliEFj7zW9_Q7-2" value="number % 2 == 0&amp;nbsp;" style="rhombus;whiteSpace=wrap;html=1;strokeColor=#000000;fontFamily=Times New Roman;fontColor=#000000;fillColor=#FFFFFF;" vertex="1" parent="1">
                    <mxGeometry x="365" y="150" width="110" height="80" as="geometry"/>
                </mxCell>
                <mxCell id="LoB43LimliEFj7zW9_Q7-4" value="" style="endArrow=none;html=1;strokeColor=#000000;strokeWidth=3;fontFamily=Times New Roman;fontColor=#000000;exitX=1;exitY=0.5;exitDx=0;exitDy=0;" edge="1" parent="1" source="LoB43LimliEFj7zW9_Q7-2">
                    <mxGeometry width="50" height="50" relative="1" as="geometry">
                        <mxPoint x="390" y="270" as="sourcePoint"/>
                        <mxPoint x="520" y="190" as="targetPoint"/>
                    </mxGeometry>
                </mxCell>
                <mxCell id="LoB43LimliEFj7zW9_Q7-5" value="" style="endArrow=none;html=1;strokeColor=#000000;strokeWidth=3;fontFamily=Times New Roman;fontColor=#000000;entryX=0;entryY=0.5;entryDx=0;entryDy=0;" edge="1" parent="1" target="LoB43LimliEFj7zW9_Q7-2">
                    <mxGeometry width="50" height="50" relative="1" as="geometry">
                        <mxPoint x="320" y="190" as="sourcePoint"/>
                        <mxPoint x="440" y="220" as="targetPoint"/>
                    </mxGeometry>
                </mxCell>
                <mxCell id="LoB43LimliEFj7zW9_Q7-6" value="" style="endArrow=classic;html=1;strokeColor=#000000;strokeWidth=3;fontFamily=Times New Roman;fontColor=#000000;" edge="1" parent="1">
                    <mxGeometry width="50" height="50" relative="1" as="geometry">
                        <mxPoint x="520" y="190" as="sourcePoint"/>
                        <mxPoint x="520" y="240" as="targetPoint"/>
                    </mxGeometry>
                </mxCell>
                <mxCell id="LoB43LimliEFj7zW9_Q7-7" value="" style="endArrow=classic;html=1;strokeColor=#000000;strokeWidth=3;fontFamily=Times New Roman;fontColor=#000000;" edge="1" parent="1">
                    <mxGeometry width="50" height="50" relative="1" as="geometry">
                        <mxPoint x="320" y="190" as="sourcePoint"/>
                        <mxPoint x="320" y="240" as="targetPoint"/>
                    </mxGeometry>
                </mxCell>
                <mxCell id="LoB43LimliEFj7zW9_Q7-8" value="1" style="ellipse;whiteSpace=wrap;html=1;strokeColor=#000000;fontFamily=Times New Roman;fontColor=#000000;fillColor=#FFFFFF;" vertex="1" parent="1">
                    <mxGeometry x="260" y="240" width="120" height="80" as="geometry"/>
                </mxCell>
                <mxCell id="LoB43LimliEFj7zW9_Q7-9" value="0" style="ellipse;whiteSpace=wrap;html=1;strokeColor=#000000;fontFamily=Times New Roman;fontColor=#000000;fillColor=#FFFFFF;" vertex="1" parent="1">
                    <mxGeometry x="460" y="240" width="120" height="80" as="geometry"/>
                </mxCell>
                <mxCell id="LoB43LimliEFj7zW9_Q7-10" value="true" style="text;html=1;align=center;verticalAlign=middle;resizable=0;points=[];autosize=1;strokeColor=none;fillColor=none;fontFamily=Times New Roman;fontColor=#000000;" vertex="1" parent="1">
                    <mxGeometry x="480" y="155" width="40" height="30" as="geometry"/>
                </mxCell>
                <mxCell id="LoB43LimliEFj7zW9_Q7-11" value="false" style="text;html=1;align=center;verticalAlign=middle;resizable=0;points=[];autosize=1;strokeColor=none;fillColor=none;fontFamily=Times New Roman;fontColor=#000000;" vertex="1" parent="1">
                    <mxGeometry x="315" y="155" width="50" height="30" as="geometry"/>
                </mxCell>
            </root>
        </mxGraphModel>
    </diagram>
    <diagram id="QRfRCNkI3O7VQcHXJT-x" name="first_task">
        <mxGraphModel dx="832" dy="475" grid="1" gridSize="10" guides="1" tooltips="1" connect="1" arrows="1" fold="1" page="1" pageScale="1" pageWidth="827" pageHeight="1169" background="#ffffff" math="0" shadow="0">
            <root>
                <mxCell id="0"/>
                <mxCell id="1" parent="0"/>
                <mxCell id="ZXnbawli1lAQ2OaTYwZM-3" value="" style="edgeStyle=none;html=1;strokeColor=#000000;strokeWidth=3;fontFamily=Times New Roman;fontColor=#000000;" edge="1" parent="1" source="ZXnbawli1lAQ2OaTYwZM-1" target="ZXnbawli1lAQ2OaTYwZM-2">
                    <mxGeometry relative="1" as="geometry"/>
                </mxCell>
                <mxCell id="ZXnbawli1lAQ2OaTYwZM-1" value="*array, length" style="ellipse;whiteSpace=wrap;html=1;strokeColor=#000000;fontFamily=Times New Roman;fontColor=#000000;fillColor=#FFFFFF;" vertex="1" parent="1">
                    <mxGeometry x="360" y="40" width="120" height="80" as="geometry"/>
                </mxCell>
                <mxCell id="ZXnbawli1lAQ2OaTYwZM-2" value="find_negative_elements(*array, length) == 1" style="rhombus;whiteSpace=wrap;html=1;strokeColor=#000000;fontFamily=Times New Roman;fontColor=#000000;fillColor=#FFFFFF;" vertex="1" parent="1">
                    <mxGeometry x="295" y="150" width="250" height="80" as="geometry"/>
                </mxCell>
                <mxCell id="ZXnbawli1lAQ2OaTYwZM-4" value="" style="endArrow=none;html=1;strokeColor=#000000;strokeWidth=3;fontFamily=Times New Roman;fontColor=#000000;entryX=0;entryY=0.5;entryDx=0;entryDy=0;" edge="1" parent="1" target="ZXnbawli1lAQ2OaTYwZM-2">
                    <mxGeometry width="50" height="50" relative="1" as="geometry">
                        <mxPoint x="200" y="190" as="sourcePoint"/>
                        <mxPoint x="440" y="220" as="targetPoint"/>
                    </mxGeometry>
                </mxCell>
                <mxCell id="ZXnbawli1lAQ2OaTYwZM-5" value="" style="endArrow=classic;html=1;strokeColor=#000000;strokeWidth=3;fontFamily=Times New Roman;fontColor=#000000;" edge="1" parent="1">
                    <mxGeometry width="50" height="50" relative="1" as="geometry">
                        <mxPoint x="200" y="190" as="sourcePoint"/>
                        <mxPoint x="200" y="270" as="targetPoint"/>
                    </mxGeometry>
                </mxCell>
                <mxCell id="ZXnbawli1lAQ2OaTYwZM-6" value="NULL" style="ellipse;whiteSpace=wrap;html=1;strokeColor=#000000;fontFamily=Times New Roman;fontColor=#000000;fillColor=#FFFFFF;" vertex="1" parent="1">
                    <mxGeometry x="140" y="270" width="120" height="80" as="geometry"/>
                </mxCell>
                <mxCell id="ZXnbawli1lAQ2OaTYwZM-7" value="true" style="text;html=1;align=center;verticalAlign=middle;resizable=0;points=[];autosize=1;strokeColor=none;fillColor=none;fontFamily=Times New Roman;fontColor=#000000;" vertex="1" parent="1">
                    <mxGeometry x="230" y="160" width="40" height="30" as="geometry"/>
                </mxCell>
                <mxCell id="ZXnbawli1lAQ2OaTYwZM-8" value="" style="endArrow=classic;html=1;strokeColor=#000000;strokeWidth=3;fontFamily=Times New Roman;fontColor=#000000;exitX=0.5;exitY=1;exitDx=0;exitDy=0;" edge="1" parent="1" source="ZXnbawli1lAQ2OaTYwZM-2">
                    <mxGeometry width="50" height="50" relative="1" as="geometry">
                        <mxPoint x="390" y="270" as="sourcePoint"/>
                        <mxPoint x="420" y="310" as="targetPoint"/>
                    </mxGeometry>
                </mxCell>
                <mxCell id="ZXnbawli1lAQ2OaTYwZM-11" value="" style="edgeStyle=none;html=1;strokeColor=#000000;strokeWidth=3;fontFamily=Times New Roman;fontColor=#000000;" edge="1" parent="1" source="ZXnbawli1lAQ2OaTYwZM-9" target="ZXnbawli1lAQ2OaTYwZM-10">
                    <mxGeometry relative="1" as="geometry"/>
                </mxCell>
                <mxCell id="ZXnbawli1lAQ2OaTYwZM-9" value="*new_array = get_mem_array(length)" style="shape=process;whiteSpace=wrap;html=1;backgroundOutline=1;strokeColor=#000000;fontFamily=Times New Roman;fontColor=#000000;fillColor=#FFFFFF;" vertex="1" parent="1">
                    <mxGeometry x="295" y="310" width="250" height="60" as="geometry"/>
                </mxCell>
                <mxCell id="ZXnbawli1lAQ2OaTYwZM-14" value="" style="edgeStyle=none;html=1;strokeColor=#000000;strokeWidth=3;fontFamily=Times New Roman;fontColor=#000000;" edge="1" parent="1" source="ZXnbawli1lAQ2OaTYwZM-10" target="ZXnbawli1lAQ2OaTYwZM-13">
                    <mxGeometry relative="1" as="geometry"/>
                </mxCell>
                <mxCell id="ZXnbawli1lAQ2OaTYwZM-10" value="copy_array(*array, *new_array, length)" style="shape=process;whiteSpace=wrap;html=1;backgroundOutline=1;strokeColor=#000000;fontFamily=Times New Roman;fontColor=#000000;fillColor=#FFFFFF;" vertex="1" parent="1">
                    <mxGeometry x="295" y="400" width="250" height="60" as="geometry"/>
                </mxCell>
                <mxCell id="ZXnbawli1lAQ2OaTYwZM-12" value="false" style="text;html=1;align=center;verticalAlign=middle;resizable=0;points=[];autosize=1;strokeColor=none;fillColor=none;fontFamily=Times New Roman;fontColor=#000000;" vertex="1" parent="1">
                    <mxGeometry x="365" y="255" width="50" height="30" as="geometry"/>
                </mxCell>
                <mxCell id="ZXnbawli1lAQ2OaTYwZM-16" value="" style="edgeStyle=none;html=1;strokeColor=#000000;strokeWidth=3;fontFamily=Times New Roman;fontColor=#000000;" edge="1" parent="1" source="ZXnbawli1lAQ2OaTYwZM-13" target="ZXnbawli1lAQ2OaTYwZM-15">
                    <mxGeometry relative="1" as="geometry"/>
                </mxCell>
                <mxCell id="ZXnbawli1lAQ2OaTYwZM-13" value="new_array[find_abs_min(*new_array, length)] = new_array[0]" style="shape=process;whiteSpace=wrap;html=1;backgroundOutline=1;strokeColor=#000000;fontFamily=Times New Roman;fontColor=#000000;fillColor=#FFFFFF;" vertex="1" parent="1">
                    <mxGeometry x="224.5" y="490" width="391" height="60" as="geometry"/>
                </mxCell>
                <mxCell id="ZXnbawli1lAQ2OaTYwZM-15" value="new_array" style="ellipse;whiteSpace=wrap;html=1;strokeColor=#000000;fontFamily=Times New Roman;fontColor=#000000;fillColor=#FFFFFF;" vertex="1" parent="1">
                    <mxGeometry x="360" y="590" width="120" height="80" as="geometry"/>
                </mxCell>
            </root>
        </mxGraphModel>
    </diagram>
    <diagram id="pQfROpL7ou_hm6zlPbQy" name="second_task">
        <mxGraphModel dx="832" dy="475" grid="1" gridSize="10" guides="1" tooltips="1" connect="1" arrows="1" fold="1" page="1" pageScale="1" pageWidth="827" pageHeight="1169" background="#ffffff" math="0" shadow="0">
            <root>
                <mxCell id="0"/>
                <mxCell id="1" parent="0"/>
                <mxCell id="2EejALjQx77FRYJDgDcD-1" value="" style="edgeStyle=none;html=1;strokeColor=#000000;strokeWidth=3;fontFamily=Times New Roman;fontColor=#000000;" edge="1" parent="1" source="2EejALjQx77FRYJDgDcD-2" target="2EejALjQx77FRYJDgDcD-3">
                    <mxGeometry relative="1" as="geometry"/>
                </mxCell>
                <mxCell id="2EejALjQx77FRYJDgDcD-2" value="*array, length" style="ellipse;whiteSpace=wrap;html=1;strokeColor=#000000;fontFamily=Times New Roman;fontColor=#000000;fillColor=#FFFFFF;" vertex="1" parent="1">
                    <mxGeometry x="360" y="40" width="120" height="80" as="geometry"/>
                </mxCell>
                <mxCell id="2EejALjQx77FRYJDgDcD-10" value="" style="edgeStyle=none;html=1;strokeColor=#000000;strokeWidth=3;fontFamily=Times New Roman;fontColor=#000000;" edge="1" parent="1" source="2EejALjQx77FRYJDgDcD-3" target="2EejALjQx77FRYJDgDcD-9">
                    <mxGeometry relative="1" as="geometry"/>
                </mxCell>
                <mxCell id="2EejALjQx77FRYJDgDcD-3" value="new_index(*array, length) == 0" style="rhombus;whiteSpace=wrap;html=1;strokeColor=#000000;fontFamily=Times New Roman;fontColor=#000000;fillColor=#FFFFFF;" vertex="1" parent="1">
                    <mxGeometry x="295" y="150" width="250" height="80" as="geometry"/>
                </mxCell>
                <mxCell id="2EejALjQx77FRYJDgDcD-4" value="" style="endArrow=none;html=1;strokeColor=#000000;strokeWidth=3;fontFamily=Times New Roman;fontColor=#000000;entryX=0;entryY=0.5;entryDx=0;entryDy=0;" edge="1" parent="1" target="2EejALjQx77FRYJDgDcD-3">
                    <mxGeometry width="50" height="50" relative="1" as="geometry">
                        <mxPoint x="200" y="190" as="sourcePoint"/>
                        <mxPoint x="440" y="220" as="targetPoint"/>
                    </mxGeometry>
                </mxCell>
                <mxCell id="2EejALjQx77FRYJDgDcD-5" value="" style="endArrow=classic;html=1;strokeColor=#000000;strokeWidth=3;fontFamily=Times New Roman;fontColor=#000000;" edge="1" parent="1">
                    <mxGeometry width="50" height="50" relative="1" as="geometry">
                        <mxPoint x="200" y="190" as="sourcePoint"/>
                        <mxPoint x="200" y="270" as="targetPoint"/>
                    </mxGeometry>
                </mxCell>
                <mxCell id="2EejALjQx77FRYJDgDcD-6" value="NULL" style="ellipse;whiteSpace=wrap;html=1;strokeColor=#000000;fontFamily=Times New Roman;fontColor=#000000;fillColor=#FFFFFF;" vertex="1" parent="1">
                    <mxGeometry x="140" y="270" width="120" height="80" as="geometry"/>
                </mxCell>
                <mxCell id="2EejALjQx77FRYJDgDcD-7" value="true" style="text;html=1;align=center;verticalAlign=middle;resizable=0;points=[];autosize=1;strokeColor=none;fillColor=none;fontFamily=Times New Roman;fontColor=#000000;" vertex="1" parent="1">
                    <mxGeometry x="230" y="160" width="40" height="30" as="geometry"/>
                </mxCell>
                <mxCell id="2EejALjQx77FRYJDgDcD-8" value="false" style="text;html=1;align=center;verticalAlign=middle;resizable=0;points=[];autosize=1;strokeColor=none;fillColor=none;fontFamily=Times New Roman;fontColor=#000000;" vertex="1" parent="1">
                    <mxGeometry x="365" y="255" width="50" height="30" as="geometry"/>
                </mxCell>
                <mxCell id="2EejALjQx77FRYJDgDcD-12" value="" style="edgeStyle=none;html=1;strokeColor=#000000;strokeWidth=3;fontFamily=Times New Roman;fontColor=#000000;" edge="1" parent="1" source="2EejALjQx77FRYJDgDcD-9" target="2EejALjQx77FRYJDgDcD-11">
                    <mxGeometry relative="1" as="geometry"/>
                </mxCell>
                <mxCell id="2EejALjQx77FRYJDgDcD-9" value="new_length = new_index(*array, length)" style="shape=process;whiteSpace=wrap;html=1;backgroundOutline=1;strokeColor=#000000;fontFamily=Times New Roman;fontColor=#000000;fillColor=#FFFFFF;" vertex="1" parent="1">
                    <mxGeometry x="290" y="300" width="260" height="60" as="geometry"/>
                </mxCell>
                <mxCell id="2EejALjQx77FRYJDgDcD-11" value="*new_array = get_mem_array(new_length)" style="shape=process;whiteSpace=wrap;html=1;backgroundOutline=1;strokeColor=#000000;fontFamily=Times New Roman;fontColor=#000000;fillColor=#FFFFFF;" vertex="1" parent="1">
                    <mxGeometry x="285" y="390" width="270" height="60" as="geometry"/>
                </mxCell>
                <mxCell id="2EejALjQx77FRYJDgDcD-16" value="" style="edgeStyle=none;html=1;strokeColor=#000000;strokeWidth=3;fontFamily=Times New Roman;fontColor=#000000;" edge="1" parent="1" source="2EejALjQx77FRYJDgDcD-13" target="2EejALjQx77FRYJDgDcD-14">
                    <mxGeometry relative="1" as="geometry"/>
                </mxCell>
                <mxCell id="2EejALjQx77FRYJDgDcD-13" value="top = 0" style="shape=process;whiteSpace=wrap;html=1;backgroundOutline=1;strokeColor=#000000;fontFamily=Times New Roman;fontColor=#000000;fillColor=#FFFFFF;" vertex="1" parent="1">
                    <mxGeometry x="360" y="470" width="120" height="60" as="geometry"/>
                </mxCell>
                <mxCell id="2EejALjQx77FRYJDgDcD-20" value="" style="edgeStyle=none;html=1;strokeColor=#000000;strokeWidth=3;fontFamily=Times New Roman;fontColor=#000000;" edge="1" parent="1" source="2EejALjQx77FRYJDgDcD-14" target="2EejALjQx77FRYJDgDcD-19">
                    <mxGeometry relative="1" as="geometry"/>
                </mxCell>
                <mxCell id="2EejALjQx77FRYJDgDcD-14" value="i = 0" style="shape=process;whiteSpace=wrap;html=1;backgroundOutline=1;strokeColor=#000000;fontFamily=Times New Roman;fontColor=#000000;fillColor=#FFFFFF;" vertex="1" parent="1">
                    <mxGeometry x="360" y="555" width="120" height="60" as="geometry"/>
                </mxCell>
                <mxCell id="2EejALjQx77FRYJDgDcD-18" value="" style="endArrow=classic;html=1;strokeColor=#000000;strokeWidth=3;fontFamily=Times New Roman;fontColor=#000000;exitX=0.5;exitY=1;exitDx=0;exitDy=0;entryX=0.5;entryY=0;entryDx=0;entryDy=0;" edge="1" parent="1" source="2EejALjQx77FRYJDgDcD-11" target="2EejALjQx77FRYJDgDcD-13">
                    <mxGeometry width="50" height="50" relative="1" as="geometry">
                        <mxPoint x="390" y="420" as="sourcePoint"/>
                        <mxPoint x="440" y="370" as="targetPoint"/>
                    </mxGeometry>
                </mxCell>
                <mxCell id="2EejALjQx77FRYJDgDcD-19" value="i &amp;lt; length" style="rhombus;whiteSpace=wrap;html=1;strokeColor=#000000;fontFamily=Times New Roman;fontColor=#000000;fillColor=#FFFFFF;" vertex="1" parent="1">
                    <mxGeometry x="380" y="650" width="80" height="80" as="geometry"/>
                </mxCell>
                <mxCell id="2EejALjQx77FRYJDgDcD-21" value="" style="endArrow=classic;html=1;strokeColor=#000000;strokeWidth=3;fontFamily=Times New Roman;fontColor=#000000;exitX=0.5;exitY=1;exitDx=0;exitDy=0;" edge="1" parent="1" source="2EejALjQx77FRYJDgDcD-19">
                    <mxGeometry width="50" height="50" relative="1" as="geometry">
                        <mxPoint x="370" y="790" as="sourcePoint"/>
                        <mxPoint x="420" y="810" as="targetPoint"/>
                    </mxGeometry>
                </mxCell>
                <mxCell id="2EejALjQx77FRYJDgDcD-22" value="true" style="text;html=1;align=center;verticalAlign=middle;resizable=0;points=[];autosize=1;strokeColor=none;fillColor=none;fontFamily=Times New Roman;fontColor=#000000;" vertex="1" parent="1">
                    <mxGeometry x="365" y="760" width="40" height="30" as="geometry"/>
                </mxCell>
                <mxCell id="2EejALjQx77FRYJDgDcD-23" value="array[i] % 10 != 0" style="rhombus;whiteSpace=wrap;html=1;strokeColor=#000000;fontFamily=Times New Roman;fontColor=#000000;fillColor=#FFFFFF;" vertex="1" parent="1">
                    <mxGeometry x="360" y="810" width="120" height="80" as="geometry"/>
                </mxCell>
                <mxCell id="2EejALjQx77FRYJDgDcD-24" value="" style="endArrow=classic;html=1;strokeColor=#000000;strokeWidth=3;fontFamily=Times New Roman;fontColor=#000000;exitX=0.5;exitY=1;exitDx=0;exitDy=0;" edge="1" parent="1" source="2EejALjQx77FRYJDgDcD-23">
                    <mxGeometry width="50" height="50" relative="1" as="geometry">
                        <mxPoint x="370" y="900" as="sourcePoint"/>
                        <mxPoint x="420" y="940" as="targetPoint"/>
                    </mxGeometry>
                </mxCell>
                <mxCell id="2EejALjQx77FRYJDgDcD-25" value="true" style="text;html=1;align=center;verticalAlign=middle;resizable=0;points=[];autosize=1;strokeColor=none;fillColor=none;fontFamily=Times New Roman;fontColor=#000000;" vertex="1" parent="1">
                    <mxGeometry x="370" y="895" width="40" height="30" as="geometry"/>
                </mxCell>
                <mxCell id="2EejALjQx77FRYJDgDcD-26" value="new_array[top] = array[i]" style="shape=process;whiteSpace=wrap;html=1;backgroundOutline=1;strokeColor=#000000;fontFamily=Times New Roman;fontColor=#000000;fillColor=#FFFFFF;" vertex="1" parent="1">
                    <mxGeometry x="335" y="940" width="170" height="60" as="geometry"/>
                </mxCell>
                <mxCell id="2EejALjQx77FRYJDgDcD-27" value="" style="endArrow=none;html=1;strokeColor=#000000;strokeWidth=3;fontFamily=Times New Roman;fontColor=#000000;entryX=0;entryY=0.5;entryDx=0;entryDy=0;" edge="1" parent="1" target="2EejALjQx77FRYJDgDcD-23">
                    <mxGeometry width="50" height="50" relative="1" as="geometry">
                        <mxPoint x="280" y="850" as="sourcePoint"/>
                        <mxPoint x="410" y="920" as="targetPoint"/>
                    </mxGeometry>
                </mxCell>
                <mxCell id="2EejALjQx77FRYJDgDcD-28" value="" style="endArrow=none;html=1;strokeColor=#000000;strokeWidth=3;fontFamily=Times New Roman;fontColor=#000000;" edge="1" parent="1">
                    <mxGeometry width="50" height="50" relative="1" as="geometry">
                        <mxPoint x="280" y="1120" as="sourcePoint"/>
                        <mxPoint x="280" y="850" as="targetPoint"/>
                    </mxGeometry>
                </mxCell>
                <mxCell id="2EejALjQx77FRYJDgDcD-29" value="" style="endArrow=classic;html=1;strokeColor=#000000;strokeWidth=3;fontFamily=Times New Roman;fontColor=#000000;exitX=0.5;exitY=1;exitDx=0;exitDy=0;" edge="1" parent="1" source="2EejALjQx77FRYJDgDcD-26">
                    <mxGeometry width="50" height="50" relative="1" as="geometry">
                        <mxPoint x="360" y="970" as="sourcePoint"/>
                        <mxPoint x="420" y="1050" as="targetPoint"/>
                    </mxGeometry>
                </mxCell>
                <mxCell id="2EejALjQx77FRYJDgDcD-31" value="false" style="text;html=1;align=center;verticalAlign=middle;resizable=0;points=[];autosize=1;strokeColor=none;fillColor=none;fontFamily=Times New Roman;fontColor=#000000;" vertex="1" parent="1">
                    <mxGeometry x="305" y="815" width="50" height="30" as="geometry"/>
                </mxCell>
                <mxCell id="2EejALjQx77FRYJDgDcD-32" value="top++" style="shape=process;whiteSpace=wrap;html=1;backgroundOutline=1;strokeColor=#000000;fontFamily=Times New Roman;fontColor=#000000;fillColor=#FFFFFF;" vertex="1" parent="1">
                    <mxGeometry x="360" y="1050" width="120" height="60" as="geometry"/>
                </mxCell>
                <mxCell id="2EejALjQx77FRYJDgDcD-35" value="" style="endArrow=none;html=1;strokeColor=#000000;strokeWidth=3;fontFamily=Times New Roman;fontColor=#000000;" edge="1" parent="1">
                    <mxGeometry width="50" height="50" relative="1" as="geometry">
                        <mxPoint x="570" y="1230" as="sourcePoint"/>
                        <mxPoint x="570" y="690" as="targetPoint"/>
                    </mxGeometry>
                </mxCell>
                <mxCell id="2EejALjQx77FRYJDgDcD-36" value="" style="endArrow=classic;html=1;strokeColor=#000000;strokeWidth=3;fontFamily=Times New Roman;fontColor=#000000;entryX=1;entryY=0.5;entryDx=0;entryDy=0;" edge="1" parent="1" target="2EejALjQx77FRYJDgDcD-19">
                    <mxGeometry width="50" height="50" relative="1" as="geometry">
                        <mxPoint x="570" y="690" as="sourcePoint"/>
                        <mxPoint x="430" y="830" as="targetPoint"/>
                    </mxGeometry>
                </mxCell>
                <mxCell id="2EejALjQx77FRYJDgDcD-37" value="" style="endArrow=none;html=1;strokeColor=#000000;strokeWidth=3;fontFamily=Times New Roman;fontColor=#000000;entryX=0;entryY=0.5;entryDx=0;entryDy=0;" edge="1" parent="1" target="2EejALjQx77FRYJDgDcD-19">
                    <mxGeometry width="50" height="50" relative="1" as="geometry">
                        <mxPoint x="200" y="690" as="sourcePoint"/>
                        <mxPoint x="310" y="800" as="targetPoint"/>
                    </mxGeometry>
                </mxCell>
                <mxCell id="2EejALjQx77FRYJDgDcD-38" value="false" style="text;html=1;align=center;verticalAlign=middle;resizable=0;points=[];autosize=1;strokeColor=none;fillColor=none;fontFamily=Times New Roman;fontColor=#000000;" vertex="1" parent="1">
                    <mxGeometry x="265" y="655" width="50" height="30" as="geometry"/>
                </mxCell>
                <mxCell id="2EejALjQx77FRYJDgDcD-39" value="" style="endArrow=classic;html=1;strokeColor=#000000;strokeWidth=3;fontFamily=Times New Roman;fontColor=#000000;" edge="1" parent="1">
                    <mxGeometry width="50" height="50" relative="1" as="geometry">
                        <mxPoint x="199.5" y="690" as="sourcePoint"/>
                        <mxPoint x="199.5" y="840" as="targetPoint"/>
                    </mxGeometry>
                </mxCell>
                <mxCell id="2EejALjQx77FRYJDgDcD-40" value="" style="endArrow=classic;html=1;strokeColor=#000000;strokeWidth=3;fontFamily=Times New Roman;fontColor=#000000;exitX=0.5;exitY=1;exitDx=0;exitDy=0;" edge="1" parent="1" source="2EejALjQx77FRYJDgDcD-32">
                    <mxGeometry width="50" height="50" relative="1" as="geometry">
                        <mxPoint x="240" y="1070" as="sourcePoint"/>
                        <mxPoint x="420" y="1140" as="targetPoint"/>
                    </mxGeometry>
                </mxCell>
                <mxCell id="2EejALjQx77FRYJDgDcD-41" value="i++" style="shape=process;whiteSpace=wrap;html=1;backgroundOutline=1;strokeColor=#000000;fontFamily=Times New Roman;fontColor=#000000;fillColor=#FFFFFF;" vertex="1" parent="1">
                    <mxGeometry x="360" y="1140" width="120" height="60" as="geometry"/>
                </mxCell>
                <mxCell id="2EejALjQx77FRYJDgDcD-42" value="" style="endArrow=classic;html=1;strokeColor=#000000;strokeWidth=3;fontFamily=Times New Roman;fontColor=#000000;" edge="1" parent="1">
                    <mxGeometry width="50" height="50" relative="1" as="geometry">
                        <mxPoint x="280" y="1120" as="sourcePoint"/>
                        <mxPoint x="420" y="1120" as="targetPoint"/>
                    </mxGeometry>
                </mxCell>
                <mxCell id="2EejALjQx77FRYJDgDcD-43" value="" style="endArrow=none;html=1;strokeColor=#000000;strokeWidth=3;fontFamily=Times New Roman;fontColor=#000000;exitX=0.5;exitY=1;exitDx=0;exitDy=0;" edge="1" parent="1" source="2EejALjQx77FRYJDgDcD-41">
                    <mxGeometry width="50" height="50" relative="1" as="geometry">
                        <mxPoint x="240" y="1070" as="sourcePoint"/>
                        <mxPoint x="420" y="1230" as="targetPoint"/>
                    </mxGeometry>
                </mxCell>
                <mxCell id="2EejALjQx77FRYJDgDcD-44" value="" style="endArrow=none;html=1;strokeColor=#000000;strokeWidth=3;fontFamily=Times New Roman;fontColor=#000000;" edge="1" parent="1">
                    <mxGeometry width="50" height="50" relative="1" as="geometry">
                        <mxPoint x="420" y="1230" as="sourcePoint"/>
                        <mxPoint x="570" y="1230" as="targetPoint"/>
                    </mxGeometry>
                </mxCell>
                <mxCell id="2EejALjQx77FRYJDgDcD-45" value="new_array" style="ellipse;whiteSpace=wrap;html=1;strokeColor=#000000;fontFamily=Times New Roman;fontColor=#000000;fillColor=#FFFFFF;" vertex="1" parent="1">
                    <mxGeometry x="145" y="840" width="120" height="80" as="geometry"/>
                </mxCell>
            </root>
        </mxGraphModel>
    </diagram>
    <diagram id="c6PFGh7kKyilZ8BVZWMR" name="third_task">
        <mxGraphModel dx="832" dy="475" grid="1" gridSize="10" guides="1" tooltips="1" connect="1" arrows="1" fold="1" page="1" pageScale="1" pageWidth="827" pageHeight="1169" background="#ffffff" math="0" shadow="0">
            <root>
                <mxCell id="0"/>
                <mxCell id="1" parent="0"/>
                <mxCell id="BbGrjSoprEc-iL1sKon3-4" value="" style="edgeStyle=none;html=1;strokeColor=#000000;strokeWidth=3;fontFamily=Times New Roman;fontColor=#000000;" edge="1" parent="1" source="BbGrjSoprEc-iL1sKon3-2" target="BbGrjSoprEc-iL1sKon3-3">
                    <mxGeometry relative="1" as="geometry"/>
                </mxCell>
                <mxCell id="BbGrjSoprEc-iL1sKon3-2" value="*array, length" style="ellipse;whiteSpace=wrap;html=1;strokeColor=#000000;fontFamily=Times New Roman;fontColor=#000000;fillColor=#FFFFFF;" vertex="1" parent="1">
                    <mxGeometry x="360" width="120" height="80" as="geometry"/>
                </mxCell>
                <mxCell id="iem6Nx7RVNMZr6RBAzJ2-1" value="" style="edgeStyle=none;html=1;strokeColor=#000000;strokeWidth=3;fontFamily=Times New Roman;fontColor=#000000;" edge="1" parent="1" source="BbGrjSoprEc-iL1sKon3-3" target="BbGrjSoprEc-iL1sKon3-5">
                    <mxGeometry relative="1" as="geometry"/>
                </mxCell>
                <mxCell id="BbGrjSoprEc-iL1sKon3-3" value="*new_array = get_mem_array(length)" style="shape=process;whiteSpace=wrap;html=1;backgroundOutline=1;strokeColor=#000000;fontFamily=Times New Roman;fontColor=#000000;fillColor=#FFFFFF;" vertex="1" parent="1">
                    <mxGeometry x="295" y="110" width="250" height="60" as="geometry"/>
                </mxCell>
                <mxCell id="iem6Nx7RVNMZr6RBAzJ2-3" value="" style="edgeStyle=none;html=1;strokeColor=#000000;strokeWidth=3;fontFamily=Times New Roman;fontColor=#000000;" edge="1" parent="1" source="BbGrjSoprEc-iL1sKon3-5" target="iem6Nx7RVNMZr6RBAzJ2-2">
                    <mxGeometry relative="1" as="geometry"/>
                </mxCell>
                <mxCell id="BbGrjSoprEc-iL1sKon3-5" value="copy_array(*array, *new_array, length)" style="shape=process;whiteSpace=wrap;html=1;backgroundOutline=1;strokeColor=#000000;fontFamily=Times New Roman;fontColor=#000000;fillColor=#FFFFFF;" vertex="1" parent="1">
                    <mxGeometry x="285" y="190" width="270" height="60" as="geometry"/>
                </mxCell>
                <mxCell id="iem6Nx7RVNMZr6RBAzJ2-5" value="" style="edgeStyle=none;html=1;strokeColor=#000000;strokeWidth=3;fontFamily=Times New Roman;fontColor=#000000;" edge="1" parent="1" source="iem6Nx7RVNMZr6RBAzJ2-2" target="iem6Nx7RVNMZr6RBAzJ2-4">
                    <mxGeometry relative="1" as="geometry"/>
                </mxCell>
                <mxCell id="iem6Nx7RVNMZr6RBAzJ2-2" value="i = 0" style="shape=process;whiteSpace=wrap;html=1;backgroundOutline=1;strokeColor=#000000;fontFamily=Times New Roman;fontColor=#000000;fillColor=#FFFFFF;" vertex="1" parent="1">
                    <mxGeometry x="360" y="280" width="120" height="60" as="geometry"/>
                </mxCell>
                <mxCell id="iem6Nx7RVNMZr6RBAzJ2-4" value="i &amp;lt; length" style="rhombus;whiteSpace=wrap;html=1;strokeColor=#000000;fontFamily=Times New Roman;fontColor=#000000;fillColor=#FFFFFF;" vertex="1" parent="1">
                    <mxGeometry x="380" y="370" width="80" height="80" as="geometry"/>
                </mxCell>
                <mxCell id="iem6Nx7RVNMZr6RBAzJ2-6" value="" style="endArrow=classic;html=1;strokeColor=#000000;strokeWidth=3;fontFamily=Times New Roman;fontColor=#000000;exitX=0.5;exitY=1;exitDx=0;exitDy=0;" edge="1" parent="1" source="iem6Nx7RVNMZr6RBAzJ2-4">
                    <mxGeometry width="50" height="50" relative="1" as="geometry">
                        <mxPoint x="360" y="570" as="sourcePoint"/>
                        <mxPoint x="420" y="520" as="targetPoint"/>
                    </mxGeometry>
                </mxCell>
                <mxCell id="iem6Nx7RVNMZr6RBAzJ2-7" value="true" style="text;html=1;align=center;verticalAlign=middle;resizable=0;points=[];autosize=1;strokeColor=none;fillColor=none;fontFamily=Times New Roman;fontColor=#000000;" vertex="1" parent="1">
                    <mxGeometry x="360" y="480" width="40" height="30" as="geometry"/>
                </mxCell>
                <mxCell id="iem6Nx7RVNMZr6RBAzJ2-8" value="is_even(array[i]) == 0" style="rhombus;whiteSpace=wrap;html=1;strokeColor=#000000;fontFamily=Times New Roman;fontColor=#000000;fillColor=#FFFFFF;" vertex="1" parent="1">
                    <mxGeometry x="340" y="520" width="160" height="80" as="geometry"/>
                </mxCell>
                <mxCell id="iem6Nx7RVNMZr6RBAzJ2-9" value="" style="endArrow=none;html=1;strokeColor=#000000;strokeWidth=3;fontFamily=Times New Roman;fontColor=#000000;exitX=1;exitY=0.5;exitDx=0;exitDy=0;" edge="1" parent="1" source="iem6Nx7RVNMZr6RBAzJ2-8">
                    <mxGeometry width="50" height="50" relative="1" as="geometry">
                        <mxPoint x="360" y="570" as="sourcePoint"/>
                        <mxPoint x="560" y="560" as="targetPoint"/>
                    </mxGeometry>
                </mxCell>
                <mxCell id="iem6Nx7RVNMZr6RBAzJ2-11" value="" style="endArrow=none;html=1;strokeColor=#000000;strokeWidth=3;fontFamily=Times New Roman;fontColor=#000000;exitX=1;exitY=0.5;exitDx=0;exitDy=0;" edge="1" parent="1">
                    <mxGeometry width="50" height="50" relative="1" as="geometry">
                        <mxPoint x="280" y="559.5" as="sourcePoint"/>
                        <mxPoint x="340" y="559.5" as="targetPoint"/>
                    </mxGeometry>
                </mxCell>
                <mxCell id="iem6Nx7RVNMZr6RBAzJ2-12" value="" style="endArrow=classic;html=1;strokeColor=#000000;strokeWidth=3;fontFamily=Times New Roman;fontColor=#000000;" edge="1" parent="1">
                    <mxGeometry width="50" height="50" relative="1" as="geometry">
                        <mxPoint x="560" y="560" as="sourcePoint"/>
                        <mxPoint x="560" y="610" as="targetPoint"/>
                    </mxGeometry>
                </mxCell>
                <mxCell id="iem6Nx7RVNMZr6RBAzJ2-13" value="" style="endArrow=classic;html=1;strokeColor=#000000;strokeWidth=3;fontFamily=Times New Roman;fontColor=#000000;" edge="1" parent="1">
                    <mxGeometry width="50" height="50" relative="1" as="geometry">
                        <mxPoint x="280" y="560" as="sourcePoint"/>
                        <mxPoint x="280" y="610" as="targetPoint"/>
                    </mxGeometry>
                </mxCell>
                <mxCell id="iem6Nx7RVNMZr6RBAzJ2-14" value="true" style="text;html=1;align=center;verticalAlign=middle;resizable=0;points=[];autosize=1;strokeColor=none;fillColor=none;fontFamily=Times New Roman;fontColor=#000000;" vertex="1" parent="1">
                    <mxGeometry x="510" y="535" width="40" height="30" as="geometry"/>
                </mxCell>
                <mxCell id="iem6Nx7RVNMZr6RBAzJ2-15" value="false" style="text;html=1;align=center;verticalAlign=middle;resizable=0;points=[];autosize=1;strokeColor=none;fillColor=none;fontFamily=Times New Roman;fontColor=#000000;" vertex="1" parent="1">
                    <mxGeometry x="275" y="525" width="50" height="30" as="geometry"/>
                </mxCell>
                <mxCell id="iem6Nx7RVNMZr6RBAzJ2-16" value="new_array[i] = i * array[i]" style="shape=process;whiteSpace=wrap;html=1;backgroundOutline=1;strokeColor=#000000;fontFamily=Times New Roman;fontColor=#000000;fillColor=#FFFFFF;" vertex="1" parent="1">
                    <mxGeometry x="470" y="610" width="190" height="60" as="geometry"/>
                </mxCell>
                <mxCell id="iem6Nx7RVNMZr6RBAzJ2-17" value="new_array[i] = -1 * array[i]" style="shape=process;whiteSpace=wrap;html=1;backgroundOutline=1;strokeColor=#000000;fontFamily=Times New Roman;fontColor=#000000;fillColor=#FFFFFF;" vertex="1" parent="1">
                    <mxGeometry x="190" y="610" width="180" height="60" as="geometry"/>
                </mxCell>
                <mxCell id="iem6Nx7RVNMZr6RBAzJ2-18" value="" style="endArrow=none;html=1;strokeColor=#000000;strokeWidth=3;fontFamily=Times New Roman;fontColor=#000000;exitX=0.5;exitY=1;exitDx=0;exitDy=0;" edge="1" parent="1" source="iem6Nx7RVNMZr6RBAzJ2-17">
                    <mxGeometry width="50" height="50" relative="1" as="geometry">
                        <mxPoint x="370" y="610" as="sourcePoint"/>
                        <mxPoint x="280" y="710" as="targetPoint"/>
                    </mxGeometry>
                </mxCell>
                <mxCell id="iem6Nx7RVNMZr6RBAzJ2-20" value="" style="endArrow=none;html=1;strokeColor=#000000;strokeWidth=3;fontFamily=Times New Roman;fontColor=#000000;exitX=0.5;exitY=1;exitDx=0;exitDy=0;" edge="1" parent="1" source="iem6Nx7RVNMZr6RBAzJ2-16">
                    <mxGeometry width="50" height="50" relative="1" as="geometry">
                        <mxPoint x="370" y="610" as="sourcePoint"/>
                        <mxPoint x="565" y="710" as="targetPoint"/>
                    </mxGeometry>
                </mxCell>
                <mxCell id="iem6Nx7RVNMZr6RBAzJ2-21" value="" style="endArrow=none;html=1;strokeColor=#000000;strokeWidth=3;fontFamily=Times New Roman;fontColor=#000000;" edge="1" parent="1">
                    <mxGeometry width="50" height="50" relative="1" as="geometry">
                        <mxPoint x="280" y="710" as="sourcePoint"/>
                        <mxPoint x="570" y="710" as="targetPoint"/>
                    </mxGeometry>
                </mxCell>
                <mxCell id="iem6Nx7RVNMZr6RBAzJ2-22" value="" style="endArrow=classic;html=1;strokeColor=#000000;strokeWidth=3;fontFamily=Times New Roman;fontColor=#000000;" edge="1" parent="1">
                    <mxGeometry width="50" height="50" relative="1" as="geometry">
                        <mxPoint x="430" y="710" as="sourcePoint"/>
                        <mxPoint x="430" y="760" as="targetPoint"/>
                    </mxGeometry>
                </mxCell>
                <mxCell id="iem6Nx7RVNMZr6RBAzJ2-23" value="i++" style="shape=process;whiteSpace=wrap;html=1;backgroundOutline=1;strokeColor=#000000;fontFamily=Times New Roman;fontColor=#000000;fillColor=#FFFFFF;" vertex="1" parent="1">
                    <mxGeometry x="370" y="760" width="120" height="60" as="geometry"/>
                </mxCell>
                <mxCell id="iem6Nx7RVNMZr6RBAzJ2-24" value="" style="endArrow=none;html=1;strokeColor=#000000;strokeWidth=3;fontFamily=Times New Roman;fontColor=#000000;exitX=0.5;exitY=1;exitDx=0;exitDy=0;" edge="1" parent="1" source="iem6Nx7RVNMZr6RBAzJ2-23">
                    <mxGeometry width="50" height="50" relative="1" as="geometry">
                        <mxPoint x="350" y="700" as="sourcePoint"/>
                        <mxPoint x="430" y="860" as="targetPoint"/>
                    </mxGeometry>
                </mxCell>
                <mxCell id="iem6Nx7RVNMZr6RBAzJ2-25" value="" style="endArrow=none;html=1;strokeColor=#000000;strokeWidth=3;fontFamily=Times New Roman;fontColor=#000000;" edge="1" parent="1">
                    <mxGeometry width="50" height="50" relative="1" as="geometry">
                        <mxPoint x="430" y="860" as="sourcePoint"/>
                        <mxPoint x="760" y="860" as="targetPoint"/>
                    </mxGeometry>
                </mxCell>
                <mxCell id="iem6Nx7RVNMZr6RBAzJ2-26" value="" style="endArrow=none;html=1;strokeColor=#000000;strokeWidth=3;fontFamily=Times New Roman;fontColor=#000000;" edge="1" parent="1">
                    <mxGeometry width="50" height="50" relative="1" as="geometry">
                        <mxPoint x="760" y="860" as="sourcePoint"/>
                        <mxPoint x="760" y="410" as="targetPoint"/>
                    </mxGeometry>
                </mxCell>
                <mxCell id="iem6Nx7RVNMZr6RBAzJ2-27" value="" style="endArrow=classic;html=1;strokeColor=#000000;strokeWidth=3;fontFamily=Times New Roman;fontColor=#000000;entryX=1;entryY=0.5;entryDx=0;entryDy=0;" edge="1" parent="1" target="iem6Nx7RVNMZr6RBAzJ2-4">
                    <mxGeometry width="50" height="50" relative="1" as="geometry">
                        <mxPoint x="760" y="410" as="sourcePoint"/>
                        <mxPoint x="580" y="510" as="targetPoint"/>
                    </mxGeometry>
                </mxCell>
                <mxCell id="iem6Nx7RVNMZr6RBAzJ2-28" value="" style="endArrow=none;html=1;strokeColor=#000000;strokeWidth=3;fontFamily=Times New Roman;fontColor=#000000;entryX=0;entryY=0.5;entryDx=0;entryDy=0;" edge="1" parent="1" target="iem6Nx7RVNMZr6RBAzJ2-4">
                    <mxGeometry width="50" height="50" relative="1" as="geometry">
                        <mxPoint x="140" y="410" as="sourcePoint"/>
                        <mxPoint x="350" y="480" as="targetPoint"/>
                    </mxGeometry>
                </mxCell>
                <mxCell id="iem6Nx7RVNMZr6RBAzJ2-29" value="false" style="text;html=1;align=center;verticalAlign=middle;resizable=0;points=[];autosize=1;strokeColor=none;fillColor=none;fontFamily=Times New Roman;fontColor=#000000;" vertex="1" parent="1">
                    <mxGeometry x="225" y="375" width="50" height="30" as="geometry"/>
                </mxCell>
                <mxCell id="iem6Nx7RVNMZr6RBAzJ2-30" value="" style="endArrow=classic;html=1;strokeColor=#000000;strokeWidth=3;fontFamily=Times New Roman;fontColor=#000000;" edge="1" parent="1">
                    <mxGeometry width="50" height="50" relative="1" as="geometry">
                        <mxPoint x="140" y="410" as="sourcePoint"/>
                        <mxPoint x="140" y="480" as="targetPoint"/>
                    </mxGeometry>
                </mxCell>
                <mxCell id="iem6Nx7RVNMZr6RBAzJ2-31" value="new_array" style="ellipse;whiteSpace=wrap;html=1;strokeColor=#000000;fontFamily=Times New Roman;fontColor=#000000;fillColor=#FFFFFF;" vertex="1" parent="1">
                    <mxGeometry x="80" y="480" width="120" height="80" as="geometry"/>
                </mxCell>
            </root>
        </mxGraphModel>
    </diagram>
</mxfile>